<svg width="69" height="32" viewBox="0 0 69 32" fill="none" xmlns="http://www.w3.org/2000/svg">
  <path d="M49.8516 7.75692L48.0916 1.59888L62.025 0.279297L64.225 6.58396C63.6383 7.26818 62.0543 9.0765 60.4116 10.8359C61.8783 11.2758 66.5717 12.8886 67.745 17.2872C68.7228 20.9527 67.6721 24.6642 66.2783 26.8175C64.665 29.3101 61.8783 30.9229 57.1849 30.9229C53.6649 30.9229 50.3405 29.8477 49.1182 29.3101C49.5093 27.8439 50.4089 24.3836 50.8782 22.2723C53.2249 23.5626 55.7672 23.5919 56.7449 23.4453C57.6249 23.2009 59.385 22.2723 59.385 19.9264C59.385 17.1406 57.4783 16.8474 56.1583 16.8474C55.2196 16.8474 53.0783 17.3361 52.1982 17.5805L50.2916 12.4488L56.0116 7.75692H49.8516Z" fill="black"/>
  <path d="M0.617188 21.5455L1.47725 0.279297L8.64443 1.61773L7.49768 15.2995L11.798 15.7456L11.368 8.01245H18.8218V16.043L23.2655 16.7866L21.9754 23.3301H19.5385L19.2519 31.3606H11.798L12.3714 22.7352L0.617188 21.5455Z" fill="black"/>
  <path d="M25.0076 21.5455L25.8842 0.279297L33.1892 1.61773L32.0204 15.2995L36.4034 15.7456L35.9651 8.01245H43.5623V16.043L48.0914 16.7866L46.7765 23.3301H44.2928L44.0006 31.3606H36.4034L36.9878 22.7352L25.0076 21.5455Z" fill="black"/>
</svg>
