<?xml version="1.0" ?><svg style="enable-background:new 0 0 48 48;" version="1.1" viewBox="0 0 48 48" xml:space="preserve" xmlns="http://www.w3.org/2000/svg" xmlns:xlink="http://www.w3.org/1999/xlink"><g id="Icons"><g><g><path d="M20.46018,25.58898l-0.11786,1.3653l-5.3183,1.41034     c-2.8832,0.76464-5.15655,2.59449-6.13474,4.93807l-1.42576,3.41608c0,0,15.84956,5.93039,33.07296,0.0273l-1.42575-3.41618     c-0.9782-2.34347-3.25154-4.17333-6.13475-4.93796l-5.3183-1.41034l-0.10726-1.32214" style="fill:#FFC601;"/></g><path d="M27.59939,27.16219c0.00007,3.71776-7.2019,3.68159-7.20197-0.03129v-1.54192h7.20197V27.16219z" style="fill:#DDBEA8;"/><path d="M17.1016,17.76185c0,0-0.89294,0.42315-0.95327,1.66591    c-0.06033,1.24275,0.42851,2.33288,1.9065,2.56181c0,0,0.4628,1.81192,1.88611,3.13528s2.79888,2.03026,4.12239,1.82943    c1.32351-0.20083,3.58009-0.8751,4.63751-2.61467c1.05743-1.73957,1.06437-2.51662,1.06437-2.51662    s1.39588,0.11069,1.89362-1.21313c0.49774-1.32383,0.06537-2.46406-0.90124-2.96227l-1.41354,2.18357l-0.25248-3.34677    l0.33967-2.04945l-5.22433,0.72028l-5.67701-0.72028l0.33752,2.07917l-0.2384,3.47168l-1.52742-2.11926" style="fill:#F9D9C0;"/><path d="M16.14833,8.76784l1.14934,8.86074l1.29936,2.30596l0.27039-3.42043l-0.31322-1.99503    l5.27842,0.64136c0.11095,0.01348,0.22313,0.01339,0.33406-0.00027l5.20706-0.64109l-0.28218,1.89278l0.15089,3.36394    l1.47804-2.00571l1.25783-9.00226H16.14833z" style="fill:#464747;"/><g><path d="     M20.45486,25.6506l-0.11254,1.30368l-5.3183,1.41034c-2.8832,0.76464-5.15655,2.59449-6.13474,4.93807l-1.42576,3.41608     c0,0,15.84956,5.93039,33.07296,0.0273l-1.42575-3.41618c-0.9782-2.34347-3.25154-4.17333-6.13475-4.93796l-5.3183-1.41034     l-0.10726-1.32214" style="fill:none;stroke:#303030;stroke-width:0.8;stroke-linecap:round;stroke-linejoin:round;stroke-miterlimit:10;"/></g><g><path d="     M29.80408,21.80287c0.84695,0.15019,1.73405-0.55311,1.98133-1.5708c0.24728-1.01759-0.21795-2.31178-1.0649-2.46197     l-1.46932,2.20013l-0.15961-3.55837l0,0" style="fill:none;stroke:#303030;stroke-width:0.8;stroke-linecap:round;stroke-linejoin:round;stroke-miterlimit:10;"/><path d="     M17.2203,17.72853c-0.78926,0.15021-1.24228,1.48594-1.01191,2.50353c0.23047,1.01769,1.05709,1.72099,1.84645,1.5708" style="fill:none;stroke:#303030;stroke-width:0.8;stroke-linecap:round;stroke-linejoin:round;stroke-miterlimit:10;"/><path d="     M29.76522,21.82299c-0.72963,2.91735-3.08498,5.05336-5.87794,5.05336c-2.74232,0-5.05871-2.23728-5.83244-5.07348" style="fill:none;stroke:#303030;stroke-width:0.8;stroke-linecap:round;stroke-linejoin:round;stroke-miterlimit:10;"/></g><g><path d="     M17.2203,17.72853l1.46354,2.3451l0.18359-3.55952l0,0l-0.31322-1.99503l5.27842,0.64136     c0.11095,0.01348,0.22313,0.01339,0.33406-0.00027l5.20706-0.64109l-0.28218,1.89278" style="fill:none;stroke:#303030;stroke-width:0.8;stroke-linecap:round;stroke-linejoin:round;stroke-miterlimit:10;"/></g><polyline points="    30.7296,17.86654 31.90937,8.6374 23.90987,8.6374 16.14833,8.6374 17.32809,17.86654   " style="fill:none;stroke:#303030;stroke-width:0.8;stroke-linecap:round;stroke-linejoin:round;stroke-miterlimit:10;"/><path d="    M20.34232,26.95428c0.00006,3.84384,7.31543,3.87621,7.31536,0.0273" style="fill:none;stroke:#303030;stroke-width:0.8;stroke-linecap:round;stroke-linejoin:round;stroke-miterlimit:10;"/></g></g></svg>