<?xml version="1.0" ?><svg style="enable-background:new 0 0 48 48;" version="1.1" viewBox="0 0 48 48" xml:space="preserve" xmlns="http://www.w3.org/2000/svg" xmlns:xlink="http://www.w3.org/1999/xlink"><g id="Icons"><g><path d="M31.86775,28.35832l1.08009,0.31087c2.86835,0.82896,5.13293,2.83247,6.10838,5.40006    l1.41682,3.73054c0,0-14.81819,7.86414-32.94608-0.02299l1.42835-3.74209c0.97557-2.55614,3.24003-4.55952,6.1085-5.40006    l1.48649-0.43759l4.40367-2.64787h6.68468L31.86775,28.35832z" style="fill:#464747;"/><path d="M28.34902,27.33351c0.11617,0.26491,0.19749,0.56421,0.23233,0.8751    c0.01154,0.12661,0.02319,0.25332,0.01154,0.37993c0.06968,1.68109-0.53411,3.32762,2.1949,5.64198    c-0.11616-0.35696-0.26705-0.66783-0.31354-1.01324c-0.18584-1.40474,0.19738-2.5677,0.87095-3.63847    c0.20903-0.33397,0.39487-0.71392,0.49938-1.12841c0.01165-0.03454,0.01165-0.05753,0.02319-0.09207    c0.39487-1.5659,0.25551-3.07426-0.49927-4.42147c-0.34849-0.59864-0.70841-1.16284-1.10327-1.75006    c-0.03484,0.02301-0.05803,0.03456-0.09286,0.046c0,0-0.03484,0.08061-0.10451,0.2188    c-0.302,0.59875-1.24263,2.29126-2.68263,3.41967c0,0,0.17419,0.1727,0.38322,0.44903    c0.16254,0.23035,0.36003,0.52966,0.52257,0.8866C28.31418,27.2529,28.32583,27.28744,28.34902,27.33351" style="fill:#FFE291;"/><path d="M25.95697,12.60906c-0.11031-0.05017-0.80881,3.00425-2.79219,3.72237    c-1.98338,0.71812-4.63476,0.4122-5.43778,1.65944s0.06336,2.84684,0.55237,4.01755    c0.48902,1.17071,0.79896,2.4959,3.07301,3.77826s5.19077,1.41885,6.68748-0.46029    c1.49671-1.87914,2.06554-2.95162,2.06554-2.95162s1.20092-0.61455,1.21659-1.93545s-0.09626-1.79624-0.80116-1.90053    C30.52084,18.53878,30.81803,14.81974,25.95697,12.60906z" style="fill:#F9D9C0;"/><path d="M17.86249,22.68435c-0.26705,0.41451-0.52257,0.82901-0.77808,1.25503    c-0.76643,1.37011-0.89413,2.91302-0.47608,4.51346c0.10451,0.4146,0.29035,0.79455,0.49938,1.12841    c0.67357,1.07077,1.05679,2.23371,0.87094,3.63847c-0.04649,0.34541-0.19738,0.65628-0.31354,1.01324    c2.729-2.31436,2.12511-3.96089,2.1949-5.64196c-0.01165-0.12661,0-0.25323,0.01154-0.37995    c0.03484-0.35685,0.151-0.70237,0.29035-1.00169c0.16254-0.35696,0.36003-0.65628,0.52257-0.88663    c0.16254-0.21871,0.39487-0.44903,0.47619-0.54111" style="fill:#FFE291;"/><path d="M23.91148,15.91708h5.86926c0,0,0.75341,1.52919,0.68758,2.80194l-12.98905,0.10806    c0,0-0.04947-1.38881,1.28762-1.56969C20.10398,17.07651,23.08516,16.86516,23.91148,15.91708z" style="fill:#F43735;"/><path d="M30.52084,18.53878c0-0.29943-0.06968-0.64484-0.10451-0.86353    c-0.20903-1.30112-0.8826-2.30281-1.75354-3.16644c-0.78973-0.78291-1.69552-1.38164-2.70582-1.89976    c-0.10451,0.27633-0.20903,0.55264-0.33684,0.81743c-0.26705,0.59875-0.59224,1.17451-0.98711,1.68105    c-0.38322,0.49515-0.87095,1.03623-1.42835,1.31258c-0.151,0.06919-0.302,0.11517-0.45289,0.16124    c-0.26716,0.08065-0.53422,0.13819-0.80138,0.19572c-0.47608,0.10362-0.96381,0.17271-1.45154,0.24179    c-0.12781,0.01155-0.25552,0.03452-0.39487,0.05764c-0.09286,0.01144-0.18584,0.02299-0.2787,0.03454    c-0.85941,0.13816-1.66068,0.33386-1.93938,0.64473c-0.05803,0.06908-0.23222,0.28788-0.33673,0.69082    c-0.12781,0.46058-0.16265,1.17451,0.19738,2.16464c0,0.0231,0.01165,0.04609,0.01165,0.06908    c0.02319,0.04609,0.02319,0.09218,0.04638,0.13814c0.17419,0.49515,0.38322,0.97872,0.59224,1.46241    c0.19749,0.43748,0.34166,0.9556,0.59717,1.27802c-1.35879-0.64484-2.31588-2.4985-2.74558-3.9148    c-0.13935-0.46058-0.2554-0.93261-0.32508-1.41618c0-0.01155-0.01165-0.0231-0.01165-0.04611    c-0.41805-2.68274-0.2582-5.02653,0.99596-7.40997c0.64478-1.22528,1.59076-2.32045,2.81582-2.99863    c4.51172-2.49762,8.7601,0.1486,9.2877,0.50656c1.71871,1.23193,2.63614,3.31605,2.93803,5.44613    c0.22068,1.49684-0.24386,3.62694-0.52257,4.69771c-0.10451,0.41449-0.18573,0.66781-0.18573,0.66781" style="fill:#FFE291;"/><path d="    M31.86775,28.35832l1.08009,0.31087c2.86835,0.82896,5.13293,2.83247,6.10838,5.40006l1.41682,3.73054    c0,0-14.81819,7.86414-32.94608-0.02299l1.42835-3.74209c0.97557-2.55614,3.24003-4.55952,6.1085-5.40006l1.48649-0.43759" style="fill:none;stroke:#30302F;stroke-width:0.8;stroke-linecap:round;stroke-linejoin:round;stroke-miterlimit:10;"/><path d="    M18.99399,23.55889c0,0,2.15972,3.41967,5.56297,3.33904c1.15626-0.02299,2.14897-0.49515,2.9452-1.10531l0.01087-0.01155    c1.77807-1.38164,2.66157-3.54629,2.66157-3.54629c0.03271-0.01155,0.05455-0.02299,0.08726-0.04609    c1.23265-0.48357,1.14539-2.53307,0.98173-3.09727c-0.16355-0.56421-0.73092-0.54586-0.73092-0.54586" style="fill:none;stroke:#30302F;stroke-width:0.8;stroke-linecap:round;stroke-linejoin:round;stroke-miterlimit:10;"/><path d="    M30.52084,18.53878c0-0.29943-0.06968-0.64484-0.10451-0.86353c-0.20903-1.30112-0.8826-2.30281-1.75354-3.16644    c-0.78973-0.78291-1.69552-1.38164-2.70582-1.89976c-0.10451,0.27633-0.20903,0.55264-0.33684,0.81743    c-0.26705,0.59875-0.59224,1.17451-0.98711,1.68105c-0.38322,0.49515-0.87095,1.03623-1.42835,1.31258    c-0.151,0.06919-0.302,0.11517-0.45289,0.16124c-0.26716,0.08065-0.53422,0.13819-0.80138,0.19572    c-0.47608,0.10362-0.96381,0.17271-1.45154,0.24179c-0.12781,0.01155-0.25552,0.03452-0.39487,0.05764    c-0.09286,0.01144-0.18584,0.02299-0.2787,0.03454c-0.85941,0.13816-1.66068,0.33386-1.93938,0.64473    c-0.05803,0.06908-0.23222,0.28788-0.33673,0.69082c-0.12781,0.46058-0.16265,1.17451,0.19738,2.16464    c0,0.0231,0.01165,0.04609,0.01165,0.06908c0.02319,0.04609,0.02319,0.09218,0.04638,0.13814    c0.17419,0.49515,0.38322,0.97872,0.59224,1.46241c0.19749,0.43748,0.34166,0.9556,0.59717,1.27802    c-1.35879-0.64484-2.31588-2.4985-2.74558-3.9148c-0.13935-0.46058-0.2554-0.93261-0.32508-1.41618    c0-0.01155-0.01165-0.0231-0.01165-0.04611c-0.41805-2.68274-0.2582-5.02653,0.99596-7.40997    c0.64478-1.22528,1.59076-2.32045,2.81582-2.99863c4.51172-2.49762,8.7601,0.1486,9.2877,0.50656    c1.71871,1.23193,2.63614,3.31605,2.93803,5.44613c0.22068,1.49684-0.24386,3.62694-0.52257,4.69771    c-0.10451,0.41449-0.18573,0.66781-0.18573,0.66781" style="fill:none;stroke:#30302F;stroke-width:0.8;stroke-linecap:round;stroke-linejoin:round;stroke-miterlimit:10;"/><path d="    M28.59288,28.58853c0.06968,1.68109-0.53411,3.32762,2.1949,5.64198c-0.11616-0.35696-0.26705-0.66783-0.31354-1.01324    c-0.18584-1.40474,0.19738-2.5677,0.87095-3.63847c0.20903-0.33397,0.39487-0.71392,0.49938-1.12841    c0.01165-0.03454,0.01165-0.05753,0.02319-0.09207c0.39487-1.5659,0.25551-3.07426-0.49927-4.42147    c-0.34849-0.59864-0.70841-1.16284-1.10327-1.75006c-0.03484,0.02301-0.05803,0.03456-0.09286,0.046    c0,0-0.03484,0.08061-0.10451,0.2188c-0.302,0.59875-1.24263,2.29126-2.68263,3.41967c0,0,0.17419,0.1727,0.38322,0.44903    C28.33003,27.13909,28.55372,27.73236,28.59288,28.58853z" style="fill:none;stroke:#30302F;stroke-width:0.8;stroke-linecap:round;stroke-linejoin:round;stroke-miterlimit:10;"/><path d="    M17.86249,22.68435c-0.26705,0.41451-0.52257,0.82901-0.77808,1.25503c-0.76643,1.37011-0.89413,2.91302-0.47608,4.51346    c0.10451,0.4146,0.29035,0.79455,0.49938,1.12841c0.67357,1.07077,1.05679,2.23371,0.87094,3.63847    c-0.04649,0.34541-0.19738,0.65628-0.31354,1.01324c2.729-2.31436,2.12511-3.96089,2.1949-5.64196    c-0.01165-0.12661,0-0.25323,0.01154-0.37995c0.03484-0.35685,0.151-0.70237,0.29035-1.00169    c0.16254-0.35696,0.36003-0.65628,0.52257-0.88663c0.16254-0.21871,0.39487-0.44903,0.47619-0.54111" style="fill:none;stroke:#30302F;stroke-width:0.8;stroke-linecap:round;stroke-linejoin:round;stroke-miterlimit:10;"/><line style="fill:none;stroke:#30302F;stroke-width:0.8;stroke-linecap:round;stroke-linejoin:round;stroke-miterlimit:10;" x1="29.87035" x2="23.71547" y1="16.08682" y2="16.08682"/><polyline points="    17.47927,18.82709 31.10132,18.82709 31.322,18.82709   " style="fill:none;stroke:#30302F;stroke-width:0.8;stroke-linecap:round;stroke-linejoin:round;stroke-miterlimit:10;"/><path d="M25.91317,23.11963c-0.32855,0.6605-0.89357,0.96393-1.64813,0.95549    c-0.73899-0.00833-1.28441-0.32087-1.60254-0.95271c0.34356-0.1815,0.64568-0.40938,0.98532-0.5029    c0.43004-0.11842,0.89895-0.15027,1.33168,0.01744C25.29214,22.75812,25.57935,22.94404,25.91317,23.11963z" style="fill:#30302F;"/><line style="fill:none;stroke:#30302F;stroke-width:0.8;stroke-linecap:round;stroke-linejoin:round;stroke-miterlimit:10;" x1="24.28789" x2="24.28789" y1="27.34275" y2="41.27155"/><polyline points="    23.78358,20.43932 24.28789,20.58937 24.79209,20.43932   " style="fill:none;stroke:#30302F;stroke-width:0.8;stroke-linecap:round;stroke-linejoin:round;stroke-miterlimit:10;"/></g></g></svg>