<?xml version="1.0" ?><svg id="Layer_1" style="enable-background:new 0 0 58 70;" version="1.1" viewBox="0 0 58 70" xml:space="preserve" xmlns="http://www.w3.org/2000/svg" xmlns:xlink="http://www.w3.org/1999/xlink"><title/><g id="Layer_2"><g id="Layer_3"><path d="M27.1,22.6c5,0,9-4,9-9s-4-9-9-9s-9,4-9,9S22.1,22.6,27.1,22.6z M27.1,7.5c3.3,0,6,2.7,6,6s-2.7,6-6,6s-6-2.7-6-6    S23.7,7.5,27.1,7.5z"/><path d="M52.3,45.9C49,32,35.1,23.3,21.2,26.5c0,0,0,0,0,0c-6.7,1.6-12.5,5.7-16.1,11.6l2.6,1.6c6.7-10.7,20.8-14,31.5-7.4    c5.2,3.2,8.8,8.3,10.2,14.2c1.4,5.9,0.4,12.1-2.8,17.3l2.6,1.6C52.7,59.6,53.8,52.6,52.3,45.9z"/></g></g></svg>