<?xml version="1.0" ?><svg style="enable-background:new 0 0 48 48.00004;" version="1.1" viewBox="0 0 48 48.00004" xml:space="preserve" xmlns="http://www.w3.org/2000/svg" xmlns:xlink="http://www.w3.org/1999/xlink"><g id="Icons"><g><path d="M14.5761,28.79726c0,0-6.34312,2.37821-8.75749,7.42134    c12.00134,3.75696,24.2106,3.58506,36.33664-0.00314c-2.41443-5.04309-8.6121-7.17314-8.6121-7.17314" style="fill:#464747;"/><path d="M28.7128,38.76631c-0.90997-3.74005-4.56859-3.87803-4.56859-3.87803h-0.21997    c0,0-3.58474,0.02179-4.59475,3.92181C22.61471,39.07301,25.82522,39.06667,28.7128,38.76631z" style="fill:#FFFFFF;"/><path d="M32.86741,20.1685H15.25437c-3.742-0.03381-5.47284,2.9715-5.47284,2.9715    c4.47955,8.0979,12.51501,10.97223,12.51501,10.97223s1.80707,1.74213,3.52869,0c0,0,8.03546-2.87433,12.51508-10.97223    C38.34031,23.13999,36.60941,20.13468,32.86741,20.1685z" style="fill:#F43735;"/><path d="M20.38314,30.80462c0,0,0.69244,3.6984,3.54035,4.08127c0,0,2.78627-0.01761,3.80457-4.25477    c0,0-2.12758,1.79395-3.80457,1.59083C22.24651,32.01883,20.38314,30.80462,20.38314,30.80462z" style="fill:#FFFFFF;"/><path d="M31.85004,21.30658c0,0,0.87638,3.36969-1.6678,4.79031c0,0,0.45998-1.00596,0.19787-2.29231    C30.38011,23.80458,31.16116,22.20092,31.85004,21.30658z" style="fill:#F9D9C0;"/><path d="M16.20894,21.30658c0,0-0.87638,3.36969,1.6678,4.79031c0,0-0.45998-1.00596-0.19788-2.29231    C17.67887,23.80458,16.89782,22.20092,16.20894,21.30658z" style="fill:#F9D9C0;"/><path d="M28.80847,24.99744c1.28482-0.54605,1.71046-1.5945,1.71046-1.5945s1.1779-2.33408,1.59246-2.50881    c0.41457-0.17472,1.0261,0.15288,1.0261,0.15288s-0.32761-0.13104-0.50233-1.26675l0.93914-0.24025    c0,0-0.98282,0.02184-0.96098-1.41963c0.02184-1.44147-0.30577-10.81562-8.34308-8.435l-0.31898,0.01456    c-8.03731-2.38062-8.43602,6.97896-8.41418,8.42044c0.02184,1.44147-0.96098,1.41963-0.96098,1.41963l0.93914,0.24025    c-0.17472,1.13571-0.50233,1.26675-0.50233,1.26675s0.61153-0.32761,1.0261-0.15288    c0.41457,0.17472,1.59247,2.50881,1.59247,2.50881s0.52634,1.21547,1.40414,1.36177" style="fill:#464747;"/><path d="M24.11667,13.82672c0,0,2.76796-2.05988,4.25654-0.9012    c1.48858,1.16673,1.81849,3.13005,1.22305,4.73933c0,0,1.16673,5.48764,0.65981,8.07858    c-0.43652,2.22483-1.35832,4.52178-4.62546,6.14391c-1.5163,0.75284-3.26893,0-3.26893,0    c-3.41821-1.26918-4.18124-3.91908-4.61776-6.14391c-0.50692-2.59094,0.65176-8.07858,0.65176-8.07858    c-0.59543-1.60928-0.26553-3.5726,1.22305-4.73933C21.10732,11.76684,24.11667,13.82672,24.11667,13.82672" style="fill:#F9D9C0;"/><path d="M25.48199,20.58262c0,0,1.4623,1.65221,3.28544,0.13294    C28.76743,20.71555,27.24815,18.11379,25.48199,20.58262z" style="fill:#F4F4F4;"/><path d="M22.61157,20.58262c0,0-1.4623,1.65221-3.28544,0.13294    C19.32614,20.71555,20.84542,18.11379,22.61157,20.58262z" style="fill:#F4F4F4;"/><path d="M24.07521,29.39182c-2.34181,0.12325-2.92726-1.69473-2.92726-1.69473    c1.44823-2.40344,2.92726-1.3866,2.92726-1.3866s1.47904-1.01684,2.92726,1.3866    C27.00247,27.69709,26.41702,29.51507,24.07521,29.39182z" style="fill:#F43735;"/><path d="M24.94306,27.44485c0.04432,0.17299,0.29786,0.77383,0.2283,1.50799    c0,0,0.74396-0.49605,0.64475-1.50799S24.81522,26.94586,24.94306,27.44485z" style="fill:#FFFFFF;"/><path d="M23.16973,27.44485c-0.04432,0.17299-0.29786,0.77383-0.2283,1.50799    c0,0-0.74396-0.49605-0.64475-1.50799C22.39589,26.43291,23.29757,26.94586,23.16973,27.44485z" style="fill:#FFFFFF;"/><path d="    M24.11667,13.82672c0,0,2.76796-2.05988,4.25654-0.9012c1.48858,1.16673,1.81849,3.13005,1.22305,4.73933    c0,0,1.16673,5.48764,0.65981,8.07858c-0.43652,2.22483-1.35832,4.52178-4.62546,6.14391c-1.5163,0.75284-3.26893,0-3.26893,0    c-3.41821-1.26918-4.18124-3.91908-4.61776-6.14391c-0.50692-2.59094,0.65176-8.07858,0.65176-8.07858    c-0.59543-1.60928-0.26553-3.5726,1.22305-4.73933C21.10732,11.76684,24.11667,13.82672,24.11667,13.82672" style="fill:none;stroke:#30302F;stroke-width:0.6;stroke-linecap:round;stroke-linejoin:round;stroke-miterlimit:10;"/><path d="    M17.82811,26.15972c0,0-2.14836-0.63466-1.63794-5.14554" style="fill:none;stroke:#30302F;stroke-width:0.6;stroke-linecap:round;stroke-linejoin:round;stroke-miterlimit:10;"/><path d="    M30.38021,26.15972c0,0,2.03674-1.07243,1.58027-5.14554" style="fill:none;stroke:#30302F;stroke-width:0.6;stroke-linecap:round;stroke-linejoin:round;stroke-miterlimit:10;"/><path d="    M28.80847,24.99744c1.1463-0.56736,1.71046-1.5945,1.71046-1.5945s1.1779-2.33408,1.59246-2.50881    c0.41457-0.17472,1.0261,0.15288,1.0261,0.15288s-0.32761-0.13104-0.50233-1.26675l0.93914-0.24025    c0,0-0.98282,0.02184-0.96098-1.41963c0.02184-1.44147-0.30577-10.81562-8.34308-8.435l-0.31898,0.01456    c-8.03731-2.38062-8.43602,6.97896-8.41418,8.42044c0.02184,1.44147-0.96098,1.41963-0.96098,1.41963l0.93914,0.24025    c-0.17472,1.13571-0.50233,1.26675-0.50233,1.26675s0.61153-0.32761,1.0261-0.15288    c0.41457,0.17472,1.59247,2.50881,1.59247,2.50881s0.52634,1.21547,1.40414,1.36177" style="fill:none;stroke:#30302F;stroke-width:0.6;stroke-linecap:round;stroke-linejoin:round;stroke-miterlimit:10;"/><path d="    M25.25239,24.02256v-0.48959l-0.87547,0.46077c-0.21606,0.11371-0.47515,0.10954-0.68744-0.01107l-0.79147-0.4497v0.49371" style="fill:none;stroke:#30302F;stroke-width:0.6;stroke-linecap:round;stroke-linejoin:round;stroke-miterlimit:10;"/><path d="    M24.8181,19.0576l0.47952,0.31968c0.09683,0.06455,0.21804,0.08079,0.32844,0.04399l2.07714-0.69238    c0.28423-0.09474,0.59643-0.01369,0.79862,0.2074c0.29308,0.32046,0.68166,0.79169,0.78553,1.13793" style="fill:none;stroke:#30302F;stroke-width:0.6;stroke-linecap:round;stroke-linejoin:round;stroke-miterlimit:10;"/><path d="    M23.32273,19.0576l-0.47952,0.31968c-0.09683,0.06455-0.21804,0.08079-0.32844,0.04399l-2.07714-0.69238    c-0.28423-0.09474-0.59643-0.01369-0.79862,0.2074c-0.29307,0.32046-0.68166,0.79169-0.78553,1.13793" style="fill:none;stroke:#30302F;stroke-width:0.6;stroke-linecap:round;stroke-linejoin:round;stroke-miterlimit:10;"/><g><path d="M22.26223,24.06024c-0.48352,0.28627-0.96078,0.66822-1.34503,1.10963     c-0.38365,0.44356-0.68312,0.98495-0.7179,1.60134c-0.0688-0.61316,0.14546-1.24317,0.47478-1.77711     c0.33575-0.53946,0.74968-1.008,1.25267-1.4313c0.12741-0.10723,0.31763-0.09087,0.42485,0.03655     c0.10724,0.12741,0.09087,0.31763-0.03654,0.42486c-0.01247,0.01049-0.02553,0.0198-0.03906,0.02793L22.26223,24.06024z" style="fill:#30302F;"/></g><g><path d="M26.22366,23.5628c0.50299,0.4233,0.9169,0.89183,1.25267,1.4313     c0.32932,0.53394,0.54356,1.16396,0.47478,1.77711c-0.03477-0.61639-0.33424-1.15778-0.7179-1.60134     c-0.38425-0.44141-0.86151-0.82335-1.34503-1.10963l-0.01228-0.00727c-0.14331-0.08484-0.19069-0.26978-0.10585-0.41308     c0.08484-0.1433,0.26978-0.19069,0.41307-0.10585C26.19714,23.54234,26.21151,23.55272,26.22366,23.5628z" style="fill:#30302F;"/></g><path d="    M24.07521,29.39182c-2.34181,0.12325-2.92726-1.69473-2.92726-1.69473c1.44823-2.40344,2.92726-1.3866,2.92726-1.3866    s1.47904-1.01684,2.92726,1.3866C27.00247,27.69709,26.41702,29.51507,24.07521,29.39182z" style="fill:none;stroke:#30302F;stroke-width:0.6;stroke-linecap:round;stroke-linejoin:round;stroke-miterlimit:10;"/><g><g><path d="M24.97212,27.4374c0.06836,0.24298,0.1653,0.48443,0.25504,0.73486      c0.08624,0.25217,0.12564,0.52329,0.11691,0.79683l-0.26892-0.16063c0.16908-0.15116,0.32042-0.37554,0.39293-0.59868      c0.08165-0.22693,0.07358-0.4667,0.04533-0.69683c-0.03307-0.25565-0.0811-0.3561-0.11487-0.42093      C25.29033,26.98893,24.91638,27.15898,24.97212,27.4374z M24.914,27.45229c-0.07492-0.27484,0.03076-0.69404,0.48143-0.81518      c0.2439-0.05487,0.50769,0.13309,0.5925,0.31212c0.09592,0.18358,0.1355,0.35446,0.13541,0.51883      c0.00929,0.32294-0.07317,0.65248-0.22539,0.93232c-0.15097,0.28556-0.35284,0.51588-0.6302,0.6967l-0.01045,0.00681      c-0.078,0.05085-0.18248,0.02884-0.23332-0.04917c-0.02368-0.03631-0.03151-0.07866-0.02531-0.11836      c0.0374-0.23698,0.05179-0.48148,0.05273-0.73447C25.06025,27.94545,24.99955,27.69745,24.914,27.45229z" style="fill:#30302F;"/></g></g><g><g><path d="M23.19879,27.45229c-0.08556,0.24516-0.14626,0.49316-0.13739,0.74961      c0.00095,0.25299,0.01534,0.49749,0.05273,0.73447c0.01451,0.09198-0.04829,0.17831-0.14027,0.19283      c-0.0428,0.00676-0.0844-0.00324-0.11809-0.02513l-0.01071-0.00699c-0.27737-0.18082-0.47925-0.41115-0.63022-0.6967      c-0.15222-0.27984-0.23466-0.60938-0.22539-0.93232c-0.00008-0.16436,0.03949-0.33525,0.13541-0.51883      c0.08481-0.17903,0.3486-0.36699,0.59251-0.31212C23.16803,26.75825,23.27371,27.17745,23.19879,27.45229z M23.14067,27.4374      c0.05574-0.27841-0.31821-0.44846-0.42642-0.34538c-0.03377,0.06483-0.0818,0.16528-0.11487,0.42093      c-0.02824,0.23013-0.03632,0.4699,0.04533,0.69683c0.07253,0.22313,0.22385,0.44752,0.39293,0.59868l-0.26892,0.16063      c-0.00873-0.27355,0.03067-0.54466,0.11691-0.79683C22.97537,27.92183,23.07231,27.68038,23.14067,27.4374z" style="fill:#30302F;"/></g></g><line style="fill:none;stroke:#30302F;stroke-width:0.6;stroke-linecap:round;stroke-linejoin:round;stroke-miterlimit:10;" x1="24.70574" x2="23.42597" y1="27.62664" y2="27.62664"/><path d="    M25.48199,20.58262c0,0,1.4623,1.65221,3.28544,0.13294C28.76743,20.71555,27.24815,18.11379,25.48199,20.58262z" style="fill:none;stroke:#30302F;stroke-width:0.6;stroke-linecap:round;stroke-linejoin:round;stroke-miterlimit:10;"/><path d="    M22.61157,20.58262c0,0-1.4623,1.65221-3.28544,0.13294C19.32614,20.71555,20.84542,18.11379,22.61157,20.58262z" style="fill:none;stroke:#30302F;stroke-width:0.6;stroke-linecap:round;stroke-linejoin:round;stroke-miterlimit:10;"/><line style="fill:none;stroke:#30302F;stroke-width:0.6;stroke-linecap:round;stroke-linejoin:round;stroke-miterlimit:10;" x1="23.01187" x2="23.01187" y1="19.26484" y2="21.98592"/><path d="    M32.86739,20.16853c3.74201-0.03382,5.47287,2.97147,5.47287,2.97147c-4.47958,8.09792-12.51505,10.97223-12.51505,10.97223    s2.20247-2.13097,1.88375-3.59066" style="fill:none;stroke:#30302F;stroke-width:0.6;stroke-linecap:round;stroke-linejoin:round;stroke-miterlimit:10;"/><path d="    M20.38314,30.80462c-0.02414,1.53686,1.91504,3.30812,1.91504,3.30812" style="fill:none;stroke:#30302F;stroke-width:0.6;stroke-linecap:round;stroke-linejoin:round;stroke-miterlimit:10;"/><path d="    M15.25436,20.16853c-3.74201-0.03382-5.47287,2.97147-5.47287,2.97147c4.47958,8.09792,12.51505,10.97223,12.51505,10.97223    s1.80707,1.74212,3.52868,0" style="fill:none;stroke:#30302F;stroke-width:0.6;stroke-linecap:round;stroke-linejoin:round;stroke-miterlimit:10;"/><path d="    M33.84476,29.09074l2.84038,1.46444c1.60123,0.82073,2.97717,2.01965,4.00711,3.50018l1.34375,1.91504" style="fill:none;stroke:#30302F;stroke-width:0.6;stroke-linecap:round;stroke-linejoin:round;stroke-miterlimit:10;"/><path d="    M5.964,35.97041l1.34375-1.91504c1.02994-1.48054,2.40587-2.67945,4.00711-3.50018l2.92084-1.50467" style="fill:none;stroke:#30302F;stroke-width:0.6;stroke-linecap:round;stroke-linejoin:round;stroke-miterlimit:10;"/><path d="    M22.27058,12.79523c0,0-0.42782-3.08586-3.4171-2.77382" style="fill:none;stroke:#30302F;stroke-width:0.6;stroke-linecap:round;stroke-linejoin:round;stroke-miterlimit:10;"/><path d="    M28.63407,38.47411l-0.11762-0.39183c-0.92203-3.25314-4.37697-3.19639-4.37697-3.19639H23.9235    c0,0-3.45494-0.05676-4.37697,3.19639l-0.11787,0.46002" style="fill:none;stroke:#30302F;stroke-width:0.6;stroke-linecap:round;stroke-linejoin:round;stroke-miterlimit:10;"/><circle cx="27.12471" cy="20.80179" r="0.50479" style="fill:none;stroke:#30302F;stroke-width:0.6;stroke-linecap:round;stroke-linejoin:round;stroke-miterlimit:10;"/><circle cx="21.08811" cy="20.80179" r="0.50479" style="fill:none;stroke:#30302F;stroke-width:0.6;stroke-linecap:round;stroke-linejoin:round;stroke-miterlimit:10;"/></g></g></svg>