<?xml version="1.0" ?><svg style="enable-background:new 0 0 48 48;" version="1.1" viewBox="0 0 48 48" xml:space="preserve" xmlns="http://www.w3.org/2000/svg" xmlns:xlink="http://www.w3.org/1999/xlink"><g id="Icons"><g><path d="M33.81894,29.87794L32.3712,14.94095c-0.42924-4.42894-3.93591-7.77396-8.39519-7.81735    c-0.07021-0.00065-0.14044-0.00065-0.21066-0.00011c-4.4708,0.03926-8.24942,3.40511-8.66475,7.84696l-1.38893,14.8524" style="fill:#464747;"/><g><path d="M20.31913,26.64365l-0.09261,1.1543l-5.10179,1.48911     c-2.7534,0.808-4.93994,2.73569-5.87701,5.20592L7.8826,38.09452c0,0,15.18982,6.24494,31.69856,0.0231l-1.36512-3.60152     c-0.93707-2.47021-3.11209-4.39792-5.87701-5.20604l-5.10179-1.489l-0.09261-1.24671" style="fill:#F4F4F4;"/></g><path d="M27.32538,27.74458c0.00006,3.59856-7.12008,3.56354-7.12014-0.03028v-1.49248h7.12014V27.74458z" style="fill:#DDBEA8;"/><path d="M29.9402,22.36655c0.84816,0.15824,1.06262-0.96787,1.31024-2.04072    c0.2476-1.07285,0.44413-2.05916-0.40403-2.21751l-1.0999,0.38058v-1.93172H17.68313v1.93172l-1.09044-0.41756h-0.13349    c-0.84816,0.15835-0.6612,1.18164-0.41348,2.25449c0.24761,1.07285,0.46207,2.19896,1.31023,2.04072    c0.83153,2.99005,3.32068,5.34855,6.26767,5.34855c3.00144,0,5.53255-2.2518,6.31658-5.32729" style="fill:#F9D9C0;"/><g><path d="     M20.31913,26.64365l-0.09261,1.1543l-5.10179,1.48911c-2.7534,0.808-4.93994,2.73569-5.87701,5.20592L7.8826,38.09452     c0,0,15.18982,6.24494,31.69856,0.0231l-1.36512-3.60152c-0.93707-2.47021-3.11209-4.39792-5.87701-5.20604l-5.10179-1.489     l-0.09261-1.24671" style="fill:none;stroke:#303030;stroke-width:0.8;stroke-linecap:round;stroke-linejoin:round;stroke-miterlimit:10;"/></g><path d="    M29.9402,22.36655c0.84816,0.15824,1.06262-0.96787,1.31024-2.04072c0.2476-1.07285,0.44413-2.05916-0.40403-2.21751    l-1.0999,0.38058v-1.93172H17.68313v1.93172l-1.09044-0.41756h-0.13349c-0.84816,0.15835-0.6612,1.18164-0.41348,2.25449    c0.24761,1.07285,0.46207,2.19896,1.31023,2.04072c0.83153,2.99005,3.32068,5.34855,6.26767,5.34855    c3.00144,0,5.53255-2.2518,6.31658-5.32729" style="fill:none;stroke:#303030;stroke-width:0.8;stroke-linecap:round;stroke-linejoin:round;stroke-miterlimit:10;"/><path d="    M33.8116,29.80218l-1.4404-14.86124c-0.42924-4.42894-3.93591-7.77396-8.39519-7.81735    c-0.07021-0.00065-0.14044-0.00065-0.21066-0.00011c-4.4708,0.03926-8.24942,3.40511-8.66475,7.84696l-1.36735,14.76886" style="fill:none;stroke:#303030;stroke-width:0.8;stroke-linecap:round;stroke-linejoin:round;stroke-miterlimit:10;"/><line style="fill:none;stroke:#303030;stroke-width:0.8;stroke-linecap:round;stroke-linejoin:round;stroke-miterlimit:10;" x1="28.09149" x2="28.09149" y1="16.55717" y2="13.94206"/><path d="    M20.22652,27.79795c0.00012,3.34573,7.01084,3.3855,7.01072,0.0231" style="fill:none;stroke:#303030;stroke-width:0.8;stroke-linecap:round;stroke-linejoin:round;stroke-miterlimit:10;"/></g></g></svg>