<?xml version="1.0" ?><svg style="enable-background:new 0 0 48 48;" version="1.1" viewBox="0 0 48 48" xml:space="preserve" xmlns="http://www.w3.org/2000/svg" xmlns:xlink="http://www.w3.org/1999/xlink"><g id="Icons"><g><path d="M20.79104,28.34291l-0.08709,1.08782l-4.79709,1.40329    c-2.58892,0.76139-4.64483,2.57808-5.52596,4.90586l-1.28356,3.39389c0,0,14.28262,5.88494,29.80531,0.02183l-1.28356-3.39392    c-0.88112-2.3279-2.92607-4.14447-5.52596-4.90598l-4.79709-1.40318l-0.08707-1.17431" style="fill:#F43735;"/><path d="M27.26773,29.41748c0.00006,3.59856-6.5354,3.56354-6.53546-0.03028v-1.49248h6.53546V29.41748z" style="fill:#DDBEA8;"/><path d="M25.78611,15.70835c0,0-1.32504,2.72077-4.56437,3.76443s-3.65385,1.10651-3.55987,3.30292    s2.35957,6.19324,5.75796,6.47301s5.59999-1.89454,6.3746-4.98615s0.12669-3.64429-0.99659-4.48889    S26.07583,16.62554,25.78611,15.70835z" style="fill:#F9D9C0;"/><g><path d="M25.79243,15.93759c2.36202,4.63205,2.90165,3.01567,4.0309,4.97446     c1.11761,1.94723-1.0255,5.63438-1.0255,5.63438c3.2032-2.08547,2.98429-6.61378,2.98429-6.61378     c0-2.66174-1.1062-4.81638-2.29297-6.29123c-0.95634-1.18677-2.17769-1.99337-3.5028-2.40813     c-1.32511-0.43793-2.74232-0.47252-4.07895-0.11528c-3.18014,0.80659-5.92246,3.75629-5.92246,8.80311l-0.00571-0.00068     c0,0-0.34982,4.53869,3.10972,6.62028c0,0-2.31899-3.68211-1.10243-5.63381c1.21656-1.95159,5.26265-0.34263,7.8098-4.96441" style="fill:#464747;"/></g><path d="M26.89657,9.13606c0,0.82987-0.3456,1.57871-0.91023,2.09712    c-1.32511-0.43771-2.74232-0.47229-4.07895-0.11505c-0.49546-0.50722-0.79495-1.20994-0.79495-1.98207    c0-1.60154,1.30194-2.89184,2.89207-2.89184C25.60605,6.24422,26.89657,7.53452,26.89657,9.13606z" style="fill:#464747;"/><path d="    M20.79104,28.34291l-0.08709,1.08782l-4.79709,1.40329c-2.58892,0.76139-4.64483,2.57808-5.52596,4.90586l-1.28356,3.39389    c0,0,14.28262,5.88494,29.80531,0.02183l-1.28356-3.39392c-0.88112-2.3279-2.92607-4.14447-5.52596-4.90598l-4.79709-1.40318    l-0.08707-1.17431" style="fill:none;stroke:#303030;stroke-width:0.8;stroke-linecap:round;stroke-linejoin:round;stroke-miterlimit:10;"/><g><path d="     M25.79243,15.93759c2.04731,4.39062,2.90165,3.01567,4.0309,4.97446c1.11761,1.94723-1.0255,5.63438-1.0255,5.63438     c3.2032-2.08547,2.98429-6.61378,2.98429-6.61378c0-2.66174-1.1062-4.81638-2.29297-6.29123     c-0.95634-1.18677-2.17769-1.99337-3.5028-2.40813c-1.32511-0.43793-2.74232-0.47252-4.07895-0.11528     c-3.18014,0.80659-5.92246,3.75629-5.92246,8.80311l-0.00571-0.00068c0,0-0.34982,4.53869,3.10972,6.62028     c0,0-2.31899-3.68211-1.10243-5.63381c1.21656-1.95159,5.26265-0.34263,7.8098-4.96441" style="fill:none;stroke:#303030;stroke-width:0.8;stroke-linecap:round;stroke-linejoin:round;stroke-miterlimit:10;"/></g><path d="    M28.79783,26.54643c0,0-4.50901,6.08394-9.70889-0.00571" style="fill:none;stroke:#303030;stroke-width:0.8;stroke-linecap:round;stroke-linejoin:round;stroke-miterlimit:10;"/><path d="    M26.89657,9.13606c0,0.82987-0.3456,1.57871-0.91023,2.09712c-1.32511-0.43771-2.74232-0.47229-4.07895-0.11505    c-0.49546-0.50722-0.79495-1.20994-0.79495-1.98207c0-1.60154,1.30194-2.89184,2.89207-2.89184    C25.60605,6.24422,26.89657,7.53452,26.89657,9.13606z" style="fill:none;stroke:#303030;stroke-width:0.8;stroke-linecap:round;stroke-linejoin:round;stroke-miterlimit:10;"/><path d="    M20.70395,29.43074c0.00012,3.34573,6.59222,3.38419,6.5921,0.02179" style="fill:none;stroke:#303030;stroke-width:0.8;stroke-linecap:round;stroke-linejoin:round;stroke-miterlimit:10;"/></g></g></svg>