<?xml version="1.0" ?><svg style="enable-background:new 0 0 48 48;" version="1.1" viewBox="0 0 48 48" xml:space="preserve" xmlns="http://www.w3.org/2000/svg" xmlns:xlink="http://www.w3.org/1999/xlink"><g id="Icons"><g><path d="M20.26204,25.66011l-0.10131,1.26708l-5.58792,1.63456    c-3.01567,0.88698-5.41054,3.00305-6.43692,5.71458l-1.49516,3.95336c0,0,16.63709,6.855,34.71851,0.02536l-1.49516-3.95336    c-1.02637-2.71153-3.40851-4.8276-6.43681-5.71458l-5.58792-1.63456l-0.07942-1.07219" style="fill:#F4F4F4;"/><path d="M36.16473,30.01086v9.73521l5.19452-1.49103c0,0-1.21326-3.94986-1.77698-4.78305    C39.01856,32.6388,36.16473,30.01086,36.16473,30.01086z" style="fill:#1D97FF;"/><path d="M11.84521,30.01086v9.73521l-5.19452-1.49103c0,0,1.21327-3.94986,1.77698-4.78305    C8.99138,32.6388,11.84521,30.01086,11.84521,30.01086z" style="fill:#1D97FF;"/><path d="M24.73792,31.11589h-1.17147c-0.30214,0-0.54697-0.24484-0.54697-0.54686v-1.11629    c0-0.30203,0.24484-0.54686,0.54697-0.54686h1.17147c0.30202,0,0.54686,0.24484,0.54686,0.54686v1.11629    C25.28478,30.87105,25.03994,31.11589,24.73792,31.11589z" style="fill:#1D97FF;"/><path d="M25.28478,29.34292l0.56842-0.50797c0.59121-0.52821,1.25725-0.96606,1.97668-1.29902    l0.59243-0.27432c0,0,1.89503,3.10648,0,5.06359l-0.79248-0.30256c-0.60841-0.23233-1.18632-0.53782-1.72101-0.90976    l-0.62404-0.43416V29.34292" style="fill:#1D97FF;"/><path d="M23.01948,29.34292l-0.71776-0.64133c-0.49213-0.43988-1.0467-0.80432-1.64561-1.08155    l-0.77416-0.35843c0,0-1.89492,3.10648,0,5.06359l0.94595-0.3612c0.50654-0.19334,0.98773-0.44768,1.43283-0.75741    l0.75875-0.52787V29.34292" style="fill:#1D97FF;"/><path d="M20.26204,25.66011l-0.24578,1.60149c0,0,2.53328,1.36587,3.00321,2.08132    c0,0,0.17455-0.43704,0.54697-0.43704c0.37243,0,1.36682,0.03713,1.36682,0.03713s0.35151,0.17479,0.35151,0.39992    l3.23048-2.08132l-0.67588-0.30906l-0.07185-1.5006L20.26204,25.66011z" style="fill:#DDBEA8;"/><path d="M23.72504,11.17437c-0.02049-0.04816-0.80044,2.20042-3.07564,3.8436    s-4.1531,2.5597-3.58615,5.10895c0.56696,2.54925,1.34669,4.47842,3.47442,5.65268    c2.12773,1.17426,5.30955,1.87321,8.00696-1.01274c0.51449-0.55045,2.84557-3.95223,1.93651-6.82013    C29.57208,15.07884,26.05462,16.64962,23.72504,11.17437z" style="fill:#F9D9C0;"/><g><circle cx="27.28525" cy="18.49775" r="2.26248" style="fill:#F4F4F4;"/></g><circle cx="20.6494" cy="18.56008" r="2.20015" style="fill:#F4F4F4;"/><path d="M29.90217,9.62003c0,0,3.25113-2.43385,4.94924,0.33777    c2.01298,3.28576-0.42679,7.33283-0.19402,9.38904c0.23277,2.05632,0.73719,5.89732-1.12511,7.91476    c0,0,1.13784-2.67701-0.59501-3.14256c-1.73285-0.46566-1.73285-2.28909-1.50007-2.5995" style="fill:#F7D47C;"/><path d="M17.59642,9.62003c0,0-3.25124-2.43385-4.94935,0.33777    c-2.01298,3.28576,0.42679,7.33283,0.19402,9.38904c-0.23277,2.05632-0.73708,5.89732,1.12511,7.91476    c0,0-1.13785-2.67701,0.595-3.14256c1.73285-0.46566,1.90721-2.44592,1.67443-2.75632" style="fill:#F7D47C;"/><path d="M15.45901,16.61163c0-10.26674,10.00459-12.54455,14.57306-6.83344    c1.3026,1.62841,2.13953,3.90623,2.13953,6.83344c0,0,0.62349,5.06306-2.90711,7.35215c0,0,2.36672-4.04919,1.12523-6.19532    c-1.24161-2.14612-3.95381-1.71096-6.55319-6.79345" style="fill:#FFE291;"/><path d="M15.45901,16.61163c0,0-0.67196,5.06306,3.13251,7.35215c0,0-2.55024-4.04919-1.21246-6.19532    c1.33778-2.14626,3.65636-1.71096,6.45747-6.79345" style="fill:#FFE291;"/><path d="    M20.26204,25.66011l-0.10131,1.26708l-5.58792,1.63456c-3.01567,0.88698-5.41054,3.00305-6.43692,5.71458l-1.49516,3.95336    c0,0,16.63709,6.855,34.71851,0.02536l-1.49516-3.95336c-1.02637-2.71153-3.40851-4.8276-6.43681-5.71458l-5.58792-1.63456    l-0.07942-1.07219" style="fill:none;stroke:#30302F;stroke-width:0.8;stroke-linecap:round;stroke-linejoin:round;stroke-miterlimit:10;"/><g><circle cx="27.28525" cy="18.49775" r="2.26248" style="fill:none;stroke:#30302F;stroke-width:0.8;stroke-linecap:round;stroke-linejoin:round;stroke-miterlimit:10;"/><line style="fill:none;stroke:#30302F;stroke-width:0.8;stroke-linecap:round;stroke-linejoin:round;stroke-miterlimit:10;" x1="25.01827" x2="22.91493" y1="18.49784" y2="18.49784"/><line style="fill:none;stroke:#30302F;stroke-width:0.8;stroke-linecap:round;stroke-linejoin:round;stroke-miterlimit:10;" x1="29.53816" x2="29.55078" y1="18.44601" y2="18.44601"/></g><circle cx="20.6494" cy="18.56008" r="2.20015" style="fill:none;stroke:#30302F;stroke-width:0.8;stroke-linecap:round;stroke-linejoin:round;stroke-miterlimit:10;"/><g><g><path d="      M15.45901,16.61163c0-10.26674,10.00459-12.54455,14.57306-6.83344c1.3026,1.62841,2.13953,3.90623,2.13953,6.83344      c0,0,0.62349,5.06306-2.90711,7.35215c0,0,2.36672-4.04919,1.12523-6.19532c-1.24161-2.14612-3.95381-1.71096-6.55319-6.79345" style="fill:none;stroke:#30302F;stroke-width:0.8;stroke-linecap:round;stroke-linejoin:round;stroke-miterlimit:10;"/><path d="      M29.90217,9.62003c0,0,3.25113-2.43385,4.94924,0.33777c2.01298,3.28576-0.42679,7.33283-0.19402,9.38904      c0.23277,2.05632,0.73719,5.89732-1.12511,7.91476c0,0,1.13784-2.67701-0.59501-3.14256      c-1.73285-0.46566-1.71776-2.21857-1.55507-2.60855" style="fill:none;stroke:#30302F;stroke-width:0.8;stroke-linecap:round;stroke-linejoin:round;stroke-miterlimit:10;"/></g><g><path d="      M17.59642,9.62003c0,0-3.25124-2.43385-4.94935,0.33777c-2.01298,3.28576,0.42679,7.33283,0.19402,9.38904      c-0.23277,2.05632-0.73708,5.89732,1.12511,7.91476c0,0-1.13785-2.67701,0.595-3.14256      c1.73285-0.46566,1.79088-2.3601,1.67443-2.75632" style="fill:none;stroke:#30302F;stroke-width:0.8;stroke-linecap:round;stroke-linejoin:round;stroke-miterlimit:10;"/></g><g><path d="      M15.45901,16.61163c0,0-0.67196,5.06306,3.13251,7.35215c0,0-2.55024-4.04919-1.21246-6.19532      c1.33778-2.14626,3.65636-1.71096,6.45747-6.79345" style="fill:none;stroke:#30302F;stroke-width:0.8;stroke-linecap:round;stroke-linejoin:round;stroke-miterlimit:10;"/></g></g><path d="    M29.2645,23.96378c0,0-4.95482,6.69672-10.67298,0" style="fill:none;stroke:#30302F;stroke-width:0.8;stroke-linecap:round;stroke-linejoin:round;stroke-miterlimit:10;"/><path d="    M25.28478,29.34292l0.56842-0.50797c0.59121-0.52821,1.25725-0.96606,1.97668-1.29902l0.59243-0.27432    c0,0,1.89503,3.10648,0,5.06359l-0.79248-0.30256c-0.60841-0.23233-1.18632-0.53782-1.72101-0.90976l-0.62404-0.43416V29.34292" style="fill:none;stroke:#30302F;stroke-width:0.8;stroke-linecap:round;stroke-linejoin:round;stroke-miterlimit:10;"/><path d="    M23.01948,29.34292l-0.71776-0.64133c-0.49213-0.43988-1.0467-0.80432-1.64561-1.08155l-0.77416-0.35843    c0,0-1.89492,3.10648,0,5.06359l0.94595-0.3612c0.50654-0.19334,0.98773-0.44768,1.43283-0.75741l0.75875-0.52787V29.34292" style="fill:none;stroke:#30302F;stroke-width:0.8;stroke-linecap:round;stroke-linejoin:round;stroke-miterlimit:10;"/><path d="    M24.73792,31.11589h-1.17147c-0.30214,0-0.54697-0.24484-0.54697-0.54686v-1.11629c0-0.30203,0.24484-0.54686,0.54697-0.54686    h1.17147c0.30202,0,0.54686,0.24484,0.54686,0.54686v1.11629C25.28478,30.87105,25.03994,31.11589,24.73792,31.11589z" style="fill:none;stroke:#30302F;stroke-width:0.8;stroke-linecap:round;stroke-linejoin:round;stroke-miterlimit:10;"/><polyline points="    23.30207,21.46725 23.83653,21.79733 24.4025,21.46725   " style="fill:none;stroke:#30302F;stroke-width:0.8;stroke-linecap:round;stroke-linejoin:round;stroke-miterlimit:10;"/><path d="    M23.05511,24.00545c0.01955,0.04658,1.12813,0.52408,1.87816-0.08299" style="fill:none;stroke:#30302F;stroke-width:0.8;stroke-linecap:round;stroke-linejoin:round;stroke-miterlimit:10;"/><line style="fill:none;stroke:#30302F;stroke-width:0.8;stroke-linecap:round;stroke-linejoin:round;stroke-miterlimit:10;" x1="24.15219" x2="24.15219" y1="31.38664" y2="41.20045"/><line style="fill:none;stroke:#30302F;stroke-width:0.8;stroke-linecap:round;stroke-linejoin:round;stroke-miterlimit:10;" x1="36.16473" x2="36.16473" y1="30.01086" y2="39.87183"/><line style="fill:none;stroke:#30302F;stroke-width:0.8;stroke-linecap:round;stroke-linejoin:round;stroke-miterlimit:10;" x1="11.84521" x2="11.84521" y1="30.01086" y2="39.61884"/></g></g></svg>