<?xml version="1.0" ?><svg style="enable-background:new 0 0 48 48;" version="1.1" viewBox="0 0 48 48" xml:space="preserve" xmlns="http://www.w3.org/2000/svg" xmlns:xlink="http://www.w3.org/1999/xlink"><g id="Icons"><g><path d="M13.13088,37.91777c-7.31306-0.72615-5.49773-4.71983-5.49773-4.71983l3.88995-10.11394v-5.08285    c0-11.72171,12.49973-10.47696,12.49973-10.47696s11.39005-0.13519,12.50957,10.22025v4.95739l3.75031,10.54797    c0,0,1.39939,3.02261-2.01512,3.97421l-4.14222,1.00761" style="fill:#707070;"/><path d="M14.19293,22.85876l-3.24434,4.73131l3.81585,6.74746c0,0,3.00329-2.05579,4.76246,0.99063h8.0773    c0,0,2.41998-3.52357,5.41026-0.99063l3.91862-7.02974l-2.73815-4.44903H14.19293z" style="fill:#464747;"/><path d="M36.93309,27.30779l-3.91862,7.02974c-3.12426-2.20982-5.41026,0.99063-5.41026,0.99063h-8.0773    c-1.60022-2.78142-4.76246-0.99063-4.76246-0.99063l-3.81585-6.74746l-1.37632,2.1828l4.04916,8.10794    c0,0,0.35474,2.25578,2.78132,2.55276c0,0,2.58961,0.49738,3.45996-1.63832h7.66531c0,0,0.99063,1.82713,3.69576,1.71367    c0,0,2.26447,0.00838,3.40571-3.46078l3.57072-7.61263" style="fill:#707070;"/><circle cx="16.9287" cy="37.19296" r="1.25997" style="fill:#F4F4F4;"/><circle cx="30.73354" cy="37.19296" r="1.25997" style="fill:#F4F4F4;"/><path d="M9.57227,29.77287c0,0-1.74817,2.35146-2.07611,3.89086    c-0.32794,1.5394,0.42995,2.70242,1.73641,3.23458s4.38886,0.98249,4.38886,0.98249L9.57227,29.77287z" style="fill:#464747;"/><path d="M38.15664,29.77287c0,0,1.74817,2.35146,2.07611,3.89086s-0.42995,2.70242-1.73641,3.23458    c-1.30646,0.53217-4.38886,0.98249-4.38886,0.98249L38.15664,29.77287z" style="fill:#464747;"/><line style="fill:none;stroke:#303030;stroke-width:0.75;stroke-linecap:round;stroke-linejoin:round;stroke-miterlimit:10;" x1="19.5269" x2="18.18868" y1="35.32816" y2="28.90346"/><line style="fill:none;stroke:#303030;stroke-width:0.75;stroke-linecap:round;stroke-linejoin:round;stroke-miterlimit:10;" x1="27.73908" x2="29.07732" y1="35.32816" y2="28.90346"/><path d="    M13.13088,37.91777c-7.31306-0.72615-5.49773-4.71983-5.49773-4.71983l3.88995-10.11394v-5.08285    c0-11.72171,12.49973-10.47696,12.49973-10.47696s11.39005-0.13519,12.50957,10.22025v4.95739l3.75031,10.54797    c0,0,1.39939,3.02261-2.01512,3.97421l-4.14222,1.00761" style="fill:none;stroke:#303030;stroke-width:0.75;stroke-linecap:round;stroke-linejoin:round;stroke-miterlimit:10;"/><polyline points="    7.97785,32.30172 15.67877,20.088 32.63343,20.088 40.0028,32.46237   " style="fill:none;stroke:#303030;stroke-width:0.75;stroke-linecap:round;stroke-linejoin:round;stroke-miterlimit:10;"/><line style="fill:none;stroke:#303030;stroke-width:0.75;stroke-linecap:round;stroke-linejoin:round;stroke-miterlimit:10;" x1="14.19293" x2="34.19493" y1="22.85876" y2="22.85876"/><path d="    M10.9486,27.59007l3.81585,6.74746c0,0,3.16224-1.79079,4.76246,0.99063h8.0773c0,0,2.286-3.20044,5.41026-0.99063    l3.91862-7.02974" style="fill:none;stroke:#303030;stroke-width:0.75;stroke-linecap:round;stroke-linejoin:round;stroke-miterlimit:10;"/><path d="    M9.57227,29.77287l4.04916,8.10794c0,0,0.35474,2.25578,2.78132,2.55276c0,0,2.58961,0.49738,3.45996-1.63832h7.66531    c0,0,0.99063,1.82713,3.69576,1.71367c0,0,2.26447,0.00838,3.40571-3.46078l3.57072-7.61263" style="fill:none;stroke:#303030;stroke-width:0.75;stroke-linecap:round;stroke-linejoin:round;stroke-miterlimit:10;"/><circle cx="16.9287" cy="37.19296" r="1.25997" style="fill:none;stroke:#303030;stroke-width:0.75;stroke-linecap:round;stroke-linejoin:round;stroke-miterlimit:10;"/><circle cx="30.73354" cy="37.19296" r="1.25997" style="fill:none;stroke:#303030;stroke-width:0.75;stroke-linecap:round;stroke-linejoin:round;stroke-miterlimit:10;"/><line style="fill:none;stroke:#303030;stroke-width:0.75;stroke-linecap:round;stroke-linejoin:round;stroke-miterlimit:10;" x1="19.65629" x2="19.65629" y1="20.088" y2="22.66229"/><line style="fill:none;stroke:#303030;stroke-width:0.75;stroke-linecap:round;stroke-linejoin:round;stroke-miterlimit:10;" x1="21.44088" x2="21.44088" y1="20.088" y2="22.66229"/><line style="fill:none;stroke:#303030;stroke-width:0.75;stroke-linecap:round;stroke-linejoin:round;stroke-miterlimit:10;" x1="23.7187" x2="23.7187" y1="20.088" y2="22.66229"/><line style="fill:none;stroke:#303030;stroke-width:0.75;stroke-linecap:round;stroke-linejoin:round;stroke-miterlimit:10;" x1="29.07732" x2="29.07732" y1="20.088" y2="22.66229"/><path d="    M13.86158,16.40911c0,0,1.09269-6.40048,6.65015-6.55657" style="fill:none;stroke:#303030;stroke-width:0.75;stroke-linecap:round;stroke-linejoin:round;stroke-miterlimit:10;"/><path d="    M22.29145,9.66518c0,0,1.59225-0.09358,2.24791,0" style="fill:none;stroke:#303030;stroke-width:0.75;stroke-linecap:round;stroke-linejoin:round;stroke-miterlimit:10;"/></g></g></svg>