<?xml version="1.0" ?><svg style="enable-background:new 0 0 48 48;" version="1.1" viewBox="0 0 48 48" xml:space="preserve" xmlns="http://www.w3.org/2000/svg" xmlns:xlink="http://www.w3.org/1999/xlink"><g id="Icons"><g><path d="M20.52427,8.92697c0,0,0.11961-1.17717,1.52592-2.24056s3.76837-1.15733,4.59057,0.18262    s1.22602,2.32958,1.22602,2.32958L20.52427,8.92697z" style="fill:#464747;"/><path d="M20.66213,10.78034c0,0-0.40322-1.02351-0.23247-1.68754    c0.17075-0.66403,2.78893-1.27098,4.42054-1.1098s3.01659,1.2156,3.01659,1.2156s0.02822,1.17088-0.28945,1.68037    C27.25967,11.38845,20.66213,10.78034,20.66213,10.78034z" style="fill:#FFC601;"/><path d="M16.84829,18.06329c0,0-0.32721-3.09647,1.29525-5.05149    c1.62246-1.95502,2.75659-2.8048,5.65368-2.92755c2.89708-0.12275,5.44143,0.97165,6.49991,3.46832    c1.05848,2.49667,0.97084,4.7127,0.97084,4.7127S21.21547,22.49716,16.84829,18.06329z" style="fill:#464747;"/><path d="M27.59389,27.15998v1.41306l5.22561,1.52731c2.83299,0.8281,5.06673,2.80985,6.02788,5.34799    l1.40094,3.69966c-16.92326,6.39312-32.49662-0.02961-32.49662-0.02961l1.40094-3.69966    c0.96115-2.53802,3.19489-4.51978,6.02787-5.34785l5.22549-1.52745v-1.40474" style="fill:#6352C1;"/><polygon points="20.406,27.2729 20.406,28.40947 23.78535,32.52774 27.59389,28.57304 27.52844,27.2729       " style="fill:#DDBEA8;"/><path d="M18.78621,16.14676l0.13693,2.43835c0,0-2.02772,1.14195-2.18846,2.17038    s-0.03797,2.6417,1.49603,3.69416c0,0,2.03597,3.82239,5.55463,4.12339s5.78903-3.38448,6.26369-5.00768    c0,0,0.68093-0.09609,0.89658-1.66394c0.21565-1.56784-0.2637-2.09946-0.94932-2.20284s-0.79325-2.59648-0.47573-3.55182H18.78621    z" style="fill:#F9D9C0;"/><path d="M23.78535,19.43888c-0.01187,0-0.04736,0-0.05922,0    c-0.45062-0.05934-3.01204-0.39128-5.26513-0.90124c-0.67599-0.15416-1.32812-0.32019-1.88555-0.49809    c-0.40315-0.13045-0.75894-0.26085-1.04353-0.40315c0,0,0.71159,1.87368,1.90928,4.15039    c0.14229,0.09494,0.29646,0.16603,0.46249,0.2135c0.39128,0.16603,0.85377,0.27272,1.38734,0.29646L24,22.98599l4.3034-0.68924    c0.53369-0.02374,0.99618-0.13043,1.38746-0.29646c0.16603-0.04747,0.32019-0.11856,0.46249-0.2135    c1.19769-2.27671,1.90917-4.15039,1.90917-4.15039c-0.28459,0.1423-0.64038,0.2727-1.04353,0.40315    c-0.55731,0.1779-1.20956,0.34393-1.88543,0.49809c-2.25309,0.50996-4.81451,0.8419-5.26513,0.90124    C23.85655,19.43888,23.79722,19.43888,23.78535,19.43888z" style="fill:#FFC601;"/><path d="M20.406,28.40947l3.37935,4.11827l3.80854-3.9547l1.32022,0.38587    c0,0-2.05987,3.59274-5.12876,5.60134c0,0-3.56685-2.64876-4.74445-5.4871L20.406,28.40947z" style="fill:#FFC601;"/><polyline points="35.36352,31.25474 32.06252,35.18032 37.55854,33.2176   " style="fill:#FFC601;"/><polyline points="12.71137,31.25474 16.01238,35.18032 10.51647,33.2176   " style="fill:#FFC601;"/><path d="    M27.59389,27.15998v1.41306l5.22561,1.52731c2.83299,0.8281,5.06673,2.80985,6.02788,5.34799l1.40094,3.69966    c-16.92326,6.39312-32.49662-0.02961-32.49662-0.02961l1.40094-3.69966c0.96115-2.53802,3.19489-4.51978,6.02787-5.34785    l5.22549-1.52745v-1.40474" style="fill:none;stroke:#30302F;stroke-width:0.8;stroke-linecap:round;stroke-linejoin:round;stroke-miterlimit:10;"/><path d="    M23.78535,19.43888c-0.01187,0-0.04736,0-0.05922,0c-0.45062-0.05934-3.01204-0.39128-5.26513-0.90124    c-0.67599-0.15416-1.32812-0.32019-1.88555-0.49809c-0.40315-0.13045-0.75894-0.26085-1.04353-0.40315    c0,0,0.71159,1.87368,1.90928,4.15039c0.14229,0.09494,0.29646,0.16603,0.46249,0.2135    c0.39128,0.16603,0.85377,0.27272,1.38734,0.29646L24,22.98599l4.3034-0.68924c0.53369-0.02374,0.99618-0.13043,1.38746-0.29646    c0.16603-0.04747,0.32019-0.11856,0.46249-0.2135c1.19769-2.27671,1.90917-4.15039,1.90917-4.15039    c-0.28459,0.1423-0.64038,0.2727-1.04353,0.40315c-0.55731,0.1779-1.20956,0.34393-1.88543,0.49809    c-2.25309,0.50996-4.81451,0.8419-5.26513,0.90124C23.85655,19.43888,23.79722,19.43888,23.78535,19.43888z" style="fill:none;stroke:#30302F;stroke-width:0.8;stroke-linecap:round;stroke-linejoin:round;stroke-miterlimit:10;"/><path d="    M16.73468,20.37353l0.0068,0.74927c-0.04736,0.86563,0.13043,2.40726,1.25703,2.88161l0,0c-0.0356-0.08307,0.07109,0.04735,0,0    c0.02374,0.03547,0.04747,0.08296,0.07109,0.13043c0.01187,0.03549,0.0356,0.05922,0.04747,0.09482    c0.1779,0.34393,0.35579,0.69961,0.56918,1.03167c0.28459,0.42688,0.62852,0.81828,0.99618,1.18583    c0.55731,0.55743,1.18583,1.0554,1.8973,1.43493c0.81828,0.43875,1.74314,0.68774,2.67998,0.66398    c1.17396-0.02371,2.19387-0.50982,3.01204-1.13836c1.60084-1.25703,2.49021-3.11871,2.67998-3.56932    c0-0.01187,0-0.01187,0-0.01187c0.0356-0.05934,0.04747-0.08307,0.04747-0.08307c0.02374-0.01187,0.04747-0.02374,0.08296-0.04736    c1.00805-0.40326,1.15034-1.82621,1.07913-2.66822v-1.16004" style="fill:none;stroke:#30302F;stroke-width:0.8;stroke-linecap:round;stroke-linejoin:round;stroke-miterlimit:10;"/><path d="    M31.24435,17.96846c0.02362-0.18976,0.02362-0.37953,0.02362-0.55731c0-1.14262-0.23067-2.29895-0.70675-3.33937    c-0.42354-0.92555-1.04595-1.75673-1.82621-2.41163c-0.74627-0.62633-1.62803-1.08559-2.5681-1.34103    c-0.72933-0.19818-1.48666-0.23389-2.23869-0.23631c-0.72115-0.00242-1.4408,0.10589-2.13085,0.3157    c-0.38425,0.11672-0.75894,0.265-1.11889,0.44302c-2.20562,1.10287-3.84207,3.36783-3.85394,6.53403v0.26085    c0,0.1423,0.01187,0.28459,0.02374,0.42688" style="fill:none;stroke:#30302F;stroke-width:0.8;stroke-linecap:round;stroke-linejoin:round;stroke-miterlimit:10;"/><path d="    M18.92314,18.58511c0-0.22537,0-0.45062-0.01187-0.66412c-0.0356-1.091-0.1423-1.92106-0.1423-1.92106h10.80298    c-0.29703,0.72647-0.15889,1.64015-0.1234,2.35174" style="fill:none;stroke:#30302F;stroke-width:0.8;stroke-linecap:round;stroke-linejoin:round;stroke-miterlimit:10;"/><path d="    M27.64839,10.87897c0.06349-0.25463,0.10681-0.51445,0.12663-0.77623c0.01843-0.243,0.01636-0.48772-0.00795-0.73025    c-0.02281-0.22894-0.06556-0.45592-0.12847-0.67725c-0.06014-0.21214-0.13884-0.41893-0.23505-0.61722    c-0.09333-0.19218-0.20313-0.37642-0.3278-0.54994c-0.12179-0.16951-0.25797-0.32883-0.40638-0.47562    c-0.14575-0.14414-0.30348-0.27618-0.47113-0.39428c-0.16499-0.11614-0.33966-0.21868-0.52171-0.30567    c-0.17974-0.08584-0.36674-0.15649-0.55858-0.21004c-0.19-0.05312-0.38471-0.08941-0.58116-0.10738    c-0.24945-0.0227-0.50685-0.02226-0.75652,0.00046C23.58395,6.0534,23.38923,6.08877,23.199,6.14039    c-0.19161,0.05185-0.37884,0.12015-0.55915,0.20336c-0.18204,0.08399-0.35695,0.1832-0.52275,0.296    c-0.16764,0.11418-0.32572,0.24219-0.47228,0.38252c-0.14863,0.14241-0.28517,0.29738-0.40753,0.46295    c-0.12501,0.16902-0.23516,0.34888-0.32872,0.53715C20.81203,8.2165,20.7331,8.4194,20.67284,8.62772    c-0.06314,0.21799-0.10589,0.44175-0.12858,0.66757c-0.02431,0.24035-0.02604,0.48276-0.00737,0.72357    c0.01993,0.25682,0.06291,0.51157,0.12524,0.76148" style="fill:none;stroke:#30302F;stroke-width:0.8;stroke-linecap:round;stroke-linejoin:round;stroke-miterlimit:10;"/><path d="    M29.94123,21.90141c0,0-0.51883,2.69659,0.6466,3.32787" style="fill:none;stroke:#30302F;stroke-width:0.8;stroke-linecap:round;stroke-linejoin:round;stroke-miterlimit:10;"/><path d="    M18.04598,22.05963c0.07109,0.45062,0.37941,2.67998-0.66412,3.26102" style="fill:none;stroke:#30302F;stroke-width:0.8;stroke-linecap:round;stroke-linejoin:round;stroke-miterlimit:10;"/><path d="    M27.65357,9.1986c0,0-2.95961-2.38847-6.99559,0" style="fill:none;stroke:#30302F;stroke-width:0.8;stroke-linecap:round;stroke-linejoin:round;stroke-miterlimit:10;"/><polyline points="    35.36352,31.25474 32.06252,35.18032 37.55854,33.2176   " style="fill:none;stroke:#30302F;stroke-width:0.8;stroke-linecap:round;stroke-linejoin:round;stroke-miterlimit:10;"/><polyline points="    12.71137,31.25474 16.01238,35.18032 10.51647,33.2176   " style="fill:none;stroke:#30302F;stroke-width:0.8;stroke-linecap:round;stroke-linejoin:round;stroke-miterlimit:10;"/><polyline points="    27.59389,28.57304 23.79722,32.54173 20.406,28.54342   " style="fill:none;stroke:#30302F;stroke-width:0.8;stroke-linecap:round;stroke-linejoin:round;stroke-miterlimit:10;"/><path d="    M23.78535,41.7025v-7.14227c1.55118-0.65386,4.9257-5.28011,4.9257-5.28011" style="fill:none;stroke:#30302F;stroke-width:0.8;stroke-linecap:round;stroke-linejoin:round;stroke-miterlimit:10;"/><path d="    M23.78535,34.56024c0,0-3.08923-2.06747-4.80069-5.60134" style="fill:none;stroke:#30302F;stroke-width:0.8;stroke-linecap:round;stroke-linejoin:round;stroke-miterlimit:10;"/><path d="    M25.50292,25.25999c-0.26937,0.47705-0.73263,0.69618-1.3512,0.69012c-0.6058-0.00598-1.05297-0.23174-1.31382-0.68818    c0.28176-0.13098,0.5293-0.29565,0.80783-0.3632c0.35253-0.08549,0.73697-0.10851,1.09172,0.0126    C24.99378,24.99884,25.2292,25.13313,25.50292,25.25999z" style="fill:none;stroke:#30302F;stroke-width:0.8;stroke-linecap:round;stroke-linejoin:round;stroke-miterlimit:10;"/></g></g></svg>