<?xml version="1.0" ?><svg style="enable-background:new 0 0 48 48;" version="1.1" viewBox="0 0 48 48" xml:space="preserve" xmlns="http://www.w3.org/2000/svg" xmlns:xlink="http://www.w3.org/1999/xlink"><g id="Icons"><g><g><path d="M30.10789,27.2722l2.95246,0.8981c2.91551,0.89798,5.21595,3.05086,6.21245,5.80639     l1.43928,4.01042c0,0-15.04519,8.43911-33.42415-0.03685l1.43928-4.01043c0.98419-2.75562,3.28463-4.89618,6.20014-5.79416     l2.92783-0.9103" style="fill:#6352C1;"/></g><path d="M20.13109,24.30743c0,0,1.61504,3.61863,0.73812,6.64303l3.12464,6.58156l3.12464-6.55696    c0,0-1.15142-2.55617,0.54677-6.39151L20.13109,24.30743z" style="fill:#DDBEA8;"/><path d="M23.9508,10.4738c0,0-3.33126,1.69507-4.25045,3.99992    c-0.91919,2.30485-2.06157,4.47715-0.88639,6.98028s1.40734,3.05813,1.40734,3.05813s4.021,3.53394,7.44395,0.25051    c0,0,0.82057-1.69884,1.48129-3.23013c0.66072-1.5313,0.52587-6.07244-1.88647-8.54791S23.9508,10.4738,23.9508,10.4738z" style="fill:#F9D9C0;"/><path d="M29.93901,27.71521c-1.22901,3.29671,0.01175,2.2636,0.17549,3.39523    c0.19909,1.32876-0.92467,6.2738-1.41625,7.65171c0,0,0.52682-4.77328-1.00665-6.72898    c-1.14702-1.46391-1.13528-4.03505-0.21061-6.75375c0.30435-0.9103,0.71405-1.83291,1.21727-2.73101    c1.34886-2.45095,1.0566-5.79373-0.85488-8.85931c-0.09225-0.14804-0.1991-0.28519-0.31643-0.41404    c-0.29032-0.31906-0.75111-0.81759-1.05261-1.08499l-2.44616-1.77134l-2.57513,1.83291    c-0.06431,0.05747-0.1333,0.12235-0.20446,0.1918c-0.70664,0.68965-1.30108,1.49652-1.73279,2.38447    c-1.33187,2.73899-1.41032,5.57229-0.22806,7.72049c0.55008,0.99628,0.99491,2.0051,1.29925,3.0016    c0.84268,2.62017,0.81919,5.06814-0.2926,6.48316c-1.53336,1.9557-1.00665,6.72898-1.00665,6.72898    c-0.49158-1.37791-1.61535-6.32294-1.41625-7.65171c0.16375-1.13163,1.41625-0.09852,0.16375-3.43218    c-0.19898-0.52921-0.46809-1.18101-0.80756-1.96849c-0.5852-1.35299-1.12365-2.74321-1.48649-4.18249    c-0.49603-1.92266-0.70881-3.99175-0.40937-5.96854c0.25394-1.67624,0.99685-3.33092,1.82037-4.78069    c0.66206-1.16561,1.48375-2.2805,2.56852-3.04108c0.10536-0.07387,0.1991-0.14776,0.30435-0.2463    c0.98328-0.60239,2.10681-1.05771,3.32419-1.21758h1.28751c0.03991,0.00331,0.08039,0.0065,0.1203,0.00981    c1.31453,0.21974,2.51116,0.76559,3.5315,1.45408c0.02349,0.01234,0.04687,0.03663,0.07036,0.06126    c1.37964,0.98362,2.33784,2.54184,3.07093,4.0842c0.79593,1.67462,1.31077,3.34221,1.32742,5.23576    c0.02645,3.02364-0.80414,5.87039-1.99894,8.59159C30.4071,26.50957,30.13799,27.17368,29.93901,27.71521z" style="fill:#464747;"/><g><path d="     M30.10789,27.2722l2.95246,0.8981c2.91551,0.89798,5.21595,3.05086,6.21245,5.80639l1.43928,4.01042     c0,0-15.04519,8.43911-33.42415-0.03685l1.43928-4.01043c0.98419-2.75562,3.28463-4.89618,6.20014-5.79416l2.92783-0.9103" style="fill:none;stroke:#30302F;stroke-width:0.8;stroke-linecap:round;stroke-linejoin:round;stroke-miterlimit:10;"/></g><path d="    M20.13109,24.30743c3.77666,3.39535,6.63071,1.21795,7.63942,0.1723" style="fill:none;stroke:#30302F;stroke-width:0.8;stroke-linecap:round;stroke-linejoin:round;stroke-miterlimit:10;"/><line style="fill:none;stroke:#30302F;stroke-width:0.8;stroke-linecap:round;stroke-linejoin:round;stroke-miterlimit:10;" x1="27.11848" x2="23.99384" y1="30.97506" y2="37.53202"/><line style="fill:none;stroke:#30302F;stroke-width:0.8;stroke-linecap:round;stroke-linejoin:round;stroke-miterlimit:10;" x1="20.8692" x2="23.99384" y1="30.95046" y2="37.53202"/><path d="    M30.51383,10.19728c-1.07028,0.46741-2.78027,1.07028-4.90841,1.30393h-0.01231c-0.02463,0-0.03695,0-0.06158,0    c-0.94724,0.09841-1.96827,0.13535-3.06306,0.02463c-0.02463,0-0.04926,0-0.07389,0    c-1.55001-0.12304-3.22305-0.50435-4.93304-1.25478" style="fill:none;stroke:#30302F;stroke-width:0.8;stroke-linecap:round;stroke-linejoin:round;stroke-miterlimit:10;"/><path d="    M29.93901,27.71521c-1.22901,3.29671,0.01175,2.2636,0.17549,3.39523c0.19909,1.32876-0.92467,6.2738-1.41625,7.65171    c0,0,0.52682-4.77328-1.00665-6.72898c-1.14702-1.46391-1.13528-4.03505-0.21061-6.75375    c0.30435-0.9103,0.71405-1.83291,1.21727-2.73101c1.34886-2.45095,1.0566-5.79373-0.85488-8.85931    c-0.09225-0.14804-0.1991-0.28519-0.31643-0.41404c-0.29032-0.31906-0.75111-0.81759-1.05261-1.08499l-2.44616-1.77134    l-2.57513,1.83291c-0.06431,0.05747-0.1333,0.12235-0.20446,0.1918c-0.70664,0.68965-1.30108,1.49652-1.73279,2.38447    c-1.33187,2.73899-1.41032,5.57229-0.22806,7.72049c0.55008,0.99628,0.99491,2.0051,1.29925,3.0016    c0.84268,2.62017,0.81919,5.06814-0.2926,6.48316c-1.53336,1.9557-1.00665,6.72898-1.00665,6.72898    c-0.49158-1.37791-1.61535-6.32294-1.41625-7.65171c0.16375-1.13163,1.41625-0.09852,0.16375-3.43218    c-0.19898-0.52921-0.46809-1.18101-0.80756-1.96849c-0.5852-1.35299-1.12365-2.74321-1.48649-4.18249    c-0.49603-1.92266-0.70881-3.99175-0.40937-5.96854c0.25394-1.67624,0.99685-3.33092,1.82037-4.78069    c0.66206-1.16561,1.48375-2.2805,2.56852-3.04108c0.10536-0.07387,0.1991-0.14776,0.30435-0.2463    c0.98328-0.60239,2.10681-1.05771,3.32419-1.21758h1.28751c0.03991,0.00331,0.08039,0.0065,0.1203,0.00981    c1.31453,0.21974,2.51116,0.76559,3.5315,1.45408c0.02349,0.01234,0.04687,0.03663,0.07036,0.06126    c1.37964,0.98362,2.33784,2.54184,3.07093,4.0842c0.79593,1.67462,1.31077,3.34221,1.32742,5.23576    c0.02645,3.02364-0.80414,5.87039-1.99894,8.59159C30.4071,26.50957,30.13799,27.17368,29.93901,27.71521z" style="fill:none;stroke:#30302F;stroke-width:0.8;stroke-linecap:round;stroke-linejoin:round;stroke-miterlimit:10;"/><g><path d="     M25.62196,22.52617c-0.31837,0.64575-0.86617,0.94246-1.59767,0.93413c-0.71622-0.0081-1.24498-0.3137-1.55343-0.93151     c0.33308-0.17732,0.62591-0.40024,0.95523-0.4917c0.41678-0.11574,0.87141-0.14687,1.29082,0.01711     C25.01999,22.17268,25.29846,22.35442,25.62196,22.52617z" style="fill:none;stroke:#30302F;stroke-width:0.8;stroke-linecap:round;stroke-linejoin:round;stroke-miterlimit:10;"/><path d="     M22.8215,16.02967c-1.02387-0.8095-2.17876-0.69045-2.72634-0.55954c-0.01197-0.01186-0.01197-0.01186-0.01197,0" style="fill:none;stroke:#30302F;stroke-width:0.8;stroke-linecap:round;stroke-linejoin:round;stroke-miterlimit:10;"/><path d="     M25.61649,16.03332c0.69786-0.55156,1.46334-0.6754,2.04877-0.66411" style="fill:none;stroke:#30302F;stroke-width:0.8;stroke-linecap:round;stroke-linejoin:round;stroke-miterlimit:10;"/><path d="     M23.33441,20.29016c0.11973,0.02303,0.2398,0.04436,0.36022,0.06397c0.13843,0.02246,0.27858,0.04265,0.41906,0.03569     c0.21666-0.01072,0.43217-0.06856,0.64484-0.10833" style="fill:none;stroke:#30302F;stroke-width:0.8;stroke-linecap:round;stroke-linejoin:round;stroke-miterlimit:10;"/><path d="     M25.85994,17.48868c0,0,1.51967-0.41187,1.95846,0" style="fill:none;stroke:#30302F;stroke-width:0.8;stroke-linecap:round;stroke-linejoin:round;stroke-miterlimit:10;"/><path d="     M22.11965,17.48868c0,0-1.51967-0.41187-1.95835,0" style="fill:none;stroke:#30302F;stroke-width:0.8;stroke-linecap:round;stroke-linejoin:round;stroke-miterlimit:10;"/></g></g></g></svg>