<svg width="135" height="40" viewBox="0 0 135 40" fill="none" xmlns="http://www.w3.org/2000/svg">
<g clip-path="url(#clip0_50_648)">
<path d="M130.197 40H4.729C2.122 40 0 37.872 0 35.267V4.726C0 2.12 2.122 0 4.729 0H130.197C132.803 0 135 2.12 135 4.726V35.267C135 37.872 132.803 40 130.197 40Z" fill="#A6A6A6"/>
<path d="M134.032 35.2686C134.032 37.3846 132.318 39.0986 130.198 39.0986H4.72901C2.61001 39.0986 0.890015 37.3846 0.890015 35.2686V4.72563C0.890015 2.61063 2.61001 0.890625 4.72901 0.890625H130.197C132.318 0.890625 134.031 2.61063 134.031 4.72563L134.032 35.2686Z" fill="black"/>
<path d="M30.128 19.7842C30.099 16.5612 32.767 14.9932 32.889 14.9202C31.378 12.7172 29.036 12.4162 28.213 12.3922C26.246 12.1852 24.338 13.5692 23.336 13.5692C22.314 13.5692 20.771 12.4122 19.108 12.4462C16.968 12.4792 14.966 13.7182 13.868 15.6422C11.602 19.5652 13.292 25.3302 15.463 28.5012C16.549 30.0542 17.818 31.7882 19.479 31.7272C21.104 31.6602 21.711 30.6912 23.672 30.6912C25.615 30.6912 26.185 31.7272 27.879 31.6882C29.623 31.6602 30.721 30.1282 31.769 28.5612C33.024 26.7812 33.528 25.0282 33.548 24.9382C33.507 24.9242 30.161 23.6472 30.128 19.7842Z" fill="white"/>
<path d="M26.9279 10.3058C27.8019 9.2128 28.3999 7.7258 28.2339 6.2168C26.9689 6.2728 25.3869 7.0918 24.4759 8.1608C23.6699 9.1028 22.9499 10.6468 23.1359 12.0988C24.5569 12.2048 26.0159 11.3818 26.9279 10.3058Z" fill="white"/>
<path d="M53.645 31.5053H51.374L50.13 27.5963H45.806L44.621 31.5053H42.41L46.694 18.1973H49.34L53.645 31.5053ZM49.755 25.9563L48.63 22.4813C48.511 22.1263 48.288 21.2903 47.959 19.9743H47.919C47.788 20.5403 47.577 21.3763 47.287 22.4813L46.182 25.9563H49.755Z" fill="white"/>
<path d="M64.662 26.5899C64.662 28.2219 64.221 29.5119 63.339 30.4589C62.549 31.3019 61.568 31.7229 60.397 31.7229C59.133 31.7229 58.225 31.2689 57.672 30.3609H57.632V35.4159H55.5V25.0689C55.5 24.0429 55.473 22.9899 55.421 21.9099H57.296L57.415 23.4309H57.455C58.166 22.2849 59.245 21.7129 60.693 21.7129C61.825 21.7129 62.77 22.1599 63.526 23.0549C64.284 23.9509 64.662 25.1289 64.662 26.5899ZM62.49 26.6679C62.49 25.7339 62.28 24.9639 61.858 24.3579C61.397 23.7259 60.778 23.4099 60.002 23.4099C59.476 23.4099 58.998 23.5859 58.571 23.9329C58.143 24.2829 57.863 24.7399 57.732 25.3059C57.666 25.5699 57.633 25.7859 57.633 25.9559V27.5559C57.633 28.2539 57.847 28.8429 58.275 29.3239C58.703 29.8049 59.259 30.0449 59.943 30.0449C60.746 30.0449 61.371 29.7349 61.818 29.1169C62.266 28.4979 62.49 27.6819 62.49 26.6679Z" fill="white"/>
<path d="M75.699 26.5899C75.699 28.2219 75.258 29.5119 74.375 30.4589C73.586 31.3019 72.605 31.7229 71.434 31.7229C70.17 31.7229 69.262 31.2689 68.71 30.3609H68.67V35.4159H66.538V25.0689C66.538 24.0429 66.511 22.9899 66.459 21.9099H68.334L68.453 23.4309H68.493C69.203 22.2849 70.282 21.7129 71.731 21.7129C72.862 21.7129 73.807 22.1599 74.565 23.0549C75.32 23.9509 75.699 25.1289 75.699 26.5899ZM73.527 26.6679C73.527 25.7339 73.316 24.9639 72.894 24.3579C72.433 23.7259 71.816 23.4099 71.039 23.4099C70.512 23.4099 70.035 23.5859 69.607 23.9329C69.179 24.2829 68.9 24.7399 68.769 25.3059C68.704 25.5699 68.67 25.7859 68.67 25.9559V27.5559C68.67 28.2539 68.884 28.8429 69.31 29.3239C69.738 29.8039 70.294 30.0449 70.98 30.0449C71.783 30.0449 72.408 29.7349 72.855 29.1169C73.303 28.4979 73.527 27.6819 73.527 26.6679Z" fill="white"/>
<path d="M88.0391 27.773C88.0391 28.905 87.6461 29.826 86.8571 30.537C85.9901 31.314 84.7831 31.702 83.2321 31.702C81.8001 31.702 80.6521 31.426 79.7831 30.873L80.2771 29.096C81.2131 29.662 82.2401 29.946 83.3591 29.946C84.1621 29.946 84.7871 29.764 85.2361 29.402C85.6831 29.04 85.9061 28.554 85.9061 27.948C85.9061 27.408 85.7221 26.953 85.3531 26.584C84.9861 26.215 84.3731 25.872 83.5171 25.555C81.1871 24.686 80.0231 23.413 80.0231 21.739C80.0231 20.645 80.4311 19.748 81.2481 19.05C82.0621 18.351 83.1481 18.002 84.5061 18.002C85.7171 18.002 86.7231 18.213 87.5261 18.634L86.9931 20.372C86.2431 19.964 85.3951 19.76 84.4461 19.76C83.6961 19.76 83.1101 19.945 82.6901 20.313C82.3351 20.642 82.1571 21.043 82.1571 21.518C82.1571 22.044 82.3601 22.479 82.7681 22.821C83.1231 23.137 83.7681 23.479 84.7041 23.848C85.8491 24.309 86.6901 24.848 87.2311 25.466C87.7701 26.082 88.0391 26.853 88.0391 27.773Z" fill="white"/>
<path d="M95.088 23.5086H92.738V28.1676C92.738 29.3526 93.152 29.9446 93.982 29.9446C94.363 29.9446 94.679 29.9116 94.929 29.8456L94.988 31.4646C94.568 31.6216 94.015 31.7006 93.33 31.7006C92.488 31.7006 91.83 31.4436 91.355 30.9306C90.882 30.4166 90.644 29.5546 90.644 28.3436V23.5066H89.244V21.9066H90.644V20.1496L92.738 19.5176V21.9066H95.088V23.5086Z" fill="white"/>
<path d="M105.691 26.6279C105.691 28.1029 105.269 29.3139 104.427 30.2609C103.544 31.2359 102.372 31.7219 100.911 31.7219C99.503 31.7219 98.382 31.2549 97.546 30.3209C96.71 29.3869 96.292 28.2079 96.292 26.7869C96.292 25.2999 96.722 24.0819 97.585 23.1349C98.446 22.1869 99.608 21.7129 101.069 21.7129C102.477 21.7129 103.61 22.1799 104.465 23.1149C105.283 24.0219 105.691 25.1929 105.691 26.6279ZM103.479 26.6969C103.479 25.8119 103.29 25.0529 102.907 24.4199C102.46 23.6539 101.821 23.2719 100.993 23.2719C100.136 23.2719 99.485 23.6549 99.038 24.4199C98.655 25.0539 98.466 25.8249 98.466 26.7369C98.466 27.6219 98.655 28.3809 99.038 29.0129C99.499 29.7789 100.143 30.1609 100.974 30.1609C101.788 30.1609 102.427 29.7709 102.888 28.9929C103.281 28.3479 103.479 27.5809 103.479 26.6969Z" fill="white"/>
<path d="M112.621 23.7849C112.41 23.7459 112.185 23.7259 111.949 23.7259C111.199 23.7259 110.619 24.0089 110.211 24.5759C109.856 25.0759 109.678 25.7079 109.678 26.4709V31.5059H107.547L107.567 24.9319C107.567 23.8259 107.54 22.8189 107.487 21.9109H109.344L109.422 23.7469H109.481C109.706 23.1159 110.061 22.6079 110.547 22.2269C111.022 21.8839 111.535 21.7129 112.088 21.7129C112.285 21.7129 112.463 21.7269 112.621 21.7519V23.7849Z" fill="white"/>
<path d="M122.156 26.2524C122.156 26.6344 122.131 26.9564 122.078 27.2194H115.682C115.707 28.1674 116.016 28.8924 116.61 29.3924C117.149 29.8394 117.846 30.0634 118.702 30.0634C119.649 30.0634 120.513 29.9124 121.29 29.6094L121.624 31.0894C120.716 31.4854 119.644 31.6824 118.407 31.6824C116.919 31.6824 115.751 31.2444 114.901 30.3694C114.053 29.4944 113.628 28.3194 113.628 26.8454C113.628 25.3984 114.023 24.1934 114.814 23.2324C115.642 22.2064 116.761 21.6934 118.169 21.6934C119.552 21.6934 120.599 22.2064 121.31 23.2324C121.873 24.0474 122.156 25.0554 122.156 26.2524ZM120.123 25.6994C120.137 25.0674 119.998 24.5214 119.709 24.0604C119.34 23.4674 118.773 23.1714 118.01 23.1714C117.313 23.1714 116.746 23.4604 116.313 24.0404C115.958 24.5014 115.747 25.0544 115.682 25.6984L120.123 25.6994Z" fill="white"/>
<path d="M49.05 10.0087C49.05 11.1857 48.697 12.0717 47.992 12.6667C47.339 13.2157 46.411 13.4907 45.209 13.4907C44.613 13.4907 44.103 13.4647 43.676 13.4127V6.9817C44.233 6.8917 44.833 6.8457 45.481 6.8457C46.626 6.8457 47.489 7.0947 48.071 7.5927C48.723 8.1557 49.05 8.9607 49.05 10.0087ZM47.945 10.0377C47.945 9.2747 47.743 8.6897 47.339 8.2817C46.935 7.8747 46.345 7.6707 45.568 7.6707C45.238 7.6707 44.957 7.6927 44.724 7.7387V12.6277C44.853 12.6477 45.089 12.6567 45.432 12.6567C46.234 12.6567 46.853 12.4337 47.289 11.9877C47.725 11.5417 47.945 10.8917 47.945 10.0377Z" fill="white"/>
<path d="M54.909 11.037C54.909 11.762 54.702 12.356 54.288 12.822C53.854 13.301 53.279 13.54 52.561 13.54C51.869 13.54 51.318 13.311 50.907 12.851C50.497 12.392 50.292 11.813 50.292 11.115C50.292 10.385 50.503 9.78605 50.927 9.32105C51.351 8.85605 51.921 8.62305 52.639 8.62305C53.331 8.62305 53.887 8.85205 54.308 9.31105C54.708 9.75705 54.909 10.333 54.909 11.037ZM53.822 11.071C53.822 10.636 53.728 10.263 53.541 9.95205C53.321 9.57605 53.008 9.38805 52.601 9.38805C52.18 9.38805 51.86 9.57605 51.64 9.95205C51.452 10.263 51.359 10.642 51.359 11.09C51.359 11.525 51.453 11.898 51.64 12.209C51.867 12.585 52.183 12.773 52.591 12.773C52.991 12.773 53.305 12.582 53.531 12.199C53.725 11.882 53.822 11.506 53.822 11.071Z" fill="white"/>
<path d="M62.7651 8.71875L61.2901 13.4327H60.3301L59.7191 11.3857C59.5641 10.8747 59.4381 10.3668 59.3401 9.86275H59.3211C59.2301 10.3808 59.1041 10.8877 58.9421 11.3857L58.2931 13.4327H57.3221L55.9351 8.71875H57.0121L57.5451 10.9598C57.6741 11.4898 57.7801 11.9947 57.8651 12.4727H57.8841C57.9621 12.0787 58.0911 11.5768 58.2731 10.9698L58.9421 8.71975H59.7961L60.4371 10.9218C60.5921 11.4588 60.7181 11.9758 60.8151 12.4738H60.8441C60.9151 11.9887 61.0221 11.4718 61.1641 10.9218L61.7361 8.71975H62.7651V8.71875Z" fill="white"/>
<path d="M68.198 13.4341H67.15V10.7341C67.15 9.90209 66.834 9.48609 66.2 9.48609C65.889 9.48609 65.638 9.60009 65.443 9.82909C65.25 10.0581 65.152 10.3281 65.152 10.6371V13.4331H64.104V10.0671C64.104 9.65309 64.091 9.20409 64.066 8.71809H64.987L65.036 9.45509H65.065C65.187 9.22609 65.369 9.03709 65.608 8.88609C65.892 8.71009 66.21 8.62109 66.558 8.62109C66.998 8.62109 67.364 8.76309 67.655 9.04809C68.017 9.39709 68.198 9.91809 68.198 10.6101V13.4341Z" fill="white"/>
<path d="M71.088 13.4336H70.041V6.55664H71.088V13.4336Z" fill="white"/>
<path d="M77.258 11.037C77.258 11.762 77.051 12.356 76.637 12.822C76.203 13.301 75.627 13.54 74.91 13.54C74.217 13.54 73.666 13.311 73.256 12.851C72.846 12.392 72.641 11.813 72.641 11.115C72.641 10.385 72.852 9.78605 73.276 9.32105C73.7 8.85605 74.27 8.62305 74.987 8.62305C75.68 8.62305 76.235 8.85205 76.657 9.31105C77.057 9.75705 77.258 10.333 77.258 11.037ZM76.17 11.071C76.17 10.636 76.076 10.263 75.889 9.95205C75.67 9.57605 75.356 9.38805 74.95 9.38805C74.528 9.38805 74.208 9.57605 73.989 9.95205C73.801 10.263 73.708 10.642 73.708 11.09C73.708 11.525 73.802 11.898 73.989 12.209C74.216 12.585 74.532 12.773 74.94 12.773C75.34 12.773 75.653 12.582 75.879 12.199C76.074 11.882 76.17 11.506 76.17 11.071Z" fill="white"/>
<path d="M82.3301 13.433H81.3891L81.3111 12.89H81.2821C80.9601 13.323 80.5011 13.54 79.9051 13.54C79.4601 13.54 79.1001 13.397 78.8291 13.113C78.5831 12.855 78.4601 12.534 78.4601 12.153C78.4601 11.577 78.7001 11.138 79.1831 10.834C79.6651 10.53 80.3431 10.381 81.2161 10.388V10.3C81.2161 9.67905 80.8901 9.36905 80.2371 9.36905C79.7721 9.36905 79.3621 9.48605 79.0081 9.71805L78.7951 9.03005C79.2331 8.75905 79.7741 8.62305 80.4121 8.62305C81.6441 8.62305 82.2621 9.27305 82.2621 10.573V12.309C82.2621 12.78 82.2851 13.155 82.3301 13.433ZM81.2421 11.813V11.086C80.0861 11.066 79.5081 11.383 79.5081 12.036C79.5081 12.282 79.5741 12.466 79.7091 12.589C79.8441 12.712 80.0161 12.773 80.2211 12.773C80.4511 12.773 80.6661 12.7 80.8621 12.555C81.0591 12.409 81.1801 12.224 81.2251 11.997C81.2361 11.946 81.2421 11.884 81.2421 11.813Z" fill="white"/>
<path d="M88.285 13.4336H87.355L87.306 12.6766H87.277C86.98 13.2526 86.474 13.5406 85.763 13.5406C85.195 13.5406 84.722 13.3176 84.347 12.8716C83.972 12.4256 83.785 11.8466 83.785 11.1356C83.785 10.3726 83.988 9.75464 84.396 9.28264C84.791 8.84264 85.275 8.62264 85.851 8.62264C86.484 8.62264 86.927 8.83564 87.179 9.26264H87.199V6.55664H88.248V12.1636C88.248 12.6226 88.26 13.0456 88.285 13.4336ZM87.199 11.4456V10.6596C87.199 10.5236 87.189 10.4136 87.17 10.3296C87.111 10.0776 86.984 9.86564 86.791 9.69464C86.596 9.52364 86.361 9.43764 86.09 9.43764C85.699 9.43764 85.393 9.59264 85.168 9.90364C84.945 10.2146 84.832 10.6116 84.832 11.0966C84.832 11.5626 84.939 11.9406 85.154 12.2316C85.381 12.5416 85.687 12.6966 86.07 12.6966C86.414 12.6966 86.689 12.5676 86.898 12.3086C87.1 12.0696 87.199 11.7816 87.199 11.4456Z" fill="white"/>
<path d="M97.248 11.037C97.248 11.762 97.041 12.356 96.627 12.822C96.193 13.301 95.619 13.54 94.9 13.54C94.209 13.54 93.658 13.311 93.246 12.851C92.836 12.392 92.631 11.813 92.631 11.115C92.631 10.385 92.842 9.78605 93.266 9.32105C93.69 8.85605 94.26 8.62305 94.979 8.62305C95.67 8.62305 96.227 8.85205 96.647 9.31105C97.047 9.75705 97.248 10.333 97.248 11.037ZM96.162 11.071C96.162 10.636 96.068 10.263 95.881 9.95205C95.66 9.57605 95.348 9.38805 94.94 9.38805C94.52 9.38805 94.2 9.57605 93.979 9.95205C93.791 10.263 93.698 10.642 93.698 11.09C93.698 11.525 93.792 11.898 93.979 12.209C94.206 12.585 94.522 12.773 94.93 12.773C95.33 12.773 95.645 12.582 95.871 12.199C96.064 11.882 96.162 11.506 96.162 11.071Z" fill="white"/>
<path d="M102.883 13.4341H101.836V10.7341C101.836 9.90209 101.52 9.48609 100.885 9.48609C100.574 9.48609 100.323 9.60009 100.129 9.82909C99.9351 10.0581 99.8381 10.3281 99.8381 10.6371V13.4331H98.7891V10.0671C98.7891 9.65309 98.7771 9.20409 98.7521 8.71809H99.6721L99.7211 9.45509H99.7501C99.8731 9.22609 100.055 9.03709 100.293 8.88609C100.578 8.71009 100.895 8.62109 101.244 8.62109C101.683 8.62109 102.049 8.76309 102.34 9.04809C102.703 9.39709 102.883 9.91809 102.883 10.6101V13.4341Z" fill="white"/>
<path d="M109.936 9.50392H108.782V11.7939C108.782 12.3759 108.987 12.6669 109.393 12.6669C109.581 12.6669 109.737 12.6509 109.86 12.6179L109.887 13.4129C109.68 13.4909 109.408 13.5299 109.073 13.5299C108.659 13.5299 108.337 13.4039 108.104 13.1519C107.87 12.8999 107.754 12.4759 107.754 11.8809V9.50392H107.065V8.71892H107.754V7.85492L108.781 7.54492V8.71792H109.935L109.936 9.50392Z" fill="white"/>
<path d="M115.484 13.4336H114.435V10.7536C114.435 9.90864 114.119 9.48564 113.486 9.48564C113 9.48564 112.668 9.73064 112.486 10.2206C112.455 10.3236 112.437 10.4496 112.437 10.5976V13.4326H111.39V6.55664H112.437V9.39764H112.457C112.787 8.88064 113.26 8.62264 113.873 8.62264C114.307 8.62264 114.666 8.76464 114.951 9.04964C115.306 9.40464 115.484 9.93264 115.484 10.6306V13.4336Z" fill="white"/>
<path d="M121.207 10.8542C121.207 11.0422 121.193 11.2002 121.168 11.3292H118.025C118.039 11.7952 118.189 12.1502 118.48 12.3962C118.746 12.6162 119.089 12.7262 119.509 12.7262C119.974 12.7262 120.398 12.6522 120.78 12.5032L120.944 13.2312C120.497 13.4252 119.971 13.5222 119.362 13.5222C118.632 13.5222 118.057 13.3072 117.641 12.8772C117.223 12.4472 117.016 11.8702 117.016 11.1462C117.016 10.4352 117.209 9.84323 117.598 9.37123C118.004 8.86723 118.553 8.61523 119.246 8.61523C119.924 8.61523 120.439 8.86723 120.787 9.37123C121.068 9.77123 121.207 10.2662 121.207 10.8542ZM120.207 10.5832C120.215 10.2722 120.146 10.0042 120.004 9.77823C119.822 9.48723 119.545 9.34123 119.17 9.34123C118.828 9.34123 118.549 9.48323 118.336 9.76823C118.162 9.99523 118.059 10.2662 118.025 10.5832H120.207Z" fill="white"/>
</g>
<defs>
<clipPath id="clip0_50_648">
<rect width="135" height="40" fill="white"/>
</clipPath>
</defs>
</svg>
