<svg width="135" height="40" viewBox="0 0 135 40" fill="none" xmlns="http://www.w3.org/2000/svg">
<g clip-path="url(#clip0_50_680)">
<mask id="mask0_50_680" style="mask-type:luminance" maskUnits="userSpaceOnUse" x="0" y="0" width="135" height="40">
<path d="M134.88 0H0V39.9202H134.88V0Z" fill="white"/>
</mask>
<g mask="url(#mask0_50_680)">
<path d="M129.885 39.9202H4.99452C2.24704 39.9202 0 37.6747 0 34.9301V4.98994C0 2.24551 2.24704 0 4.99452 0H129.885C132.632 0 134.88 2.24551 134.88 4.98994V34.9301C134.88 37.6747 132.632 39.9202 129.885 39.9202Z" fill="#030404"/>
<path d="M129.885 0H4.99452C2.24704 0 0 2.24551 0 4.98994V34.9301C0 37.6747 2.24704 39.9202 4.99452 39.9202H129.885C132.632 39.9202 134.88 37.6747 134.88 34.9301V4.98994C134.88 2.24551 132.632 0 129.885 0ZM129.885 0.798323C132.199 0.798323 134.081 2.67976 134.081 4.98994V34.9301C134.081 37.2414 132.199 39.1226 129.885 39.1226H4.99452C2.68154 39.1226 0.799209 37.2414 0.799209 34.9301V4.98994C0.799209 2.67976 2.68154 0.798323 4.99452 0.798323H129.885Z" fill="#A7A5A6"/>
<path d="M47.3339 9.77084H44.4284V10.4904H46.6055C46.5467 11.0753 46.312 11.5354 45.9192 11.8695C45.5255 12.2039 45.0229 12.3716 44.4284 12.3716C43.775 12.3716 43.2226 12.1459 42.771 11.694C42.3274 11.2338 42.1006 10.6659 42.1006 9.97947C42.1006 9.29372 42.3274 8.72486 42.771 8.26474C43.2226 7.81372 43.775 7.58809 44.4284 7.58809C44.7632 7.58809 45.0819 7.64605 45.3746 7.7718C45.6674 7.89755 45.9022 8.07312 46.0861 8.29875L46.6386 7.74689C46.3877 7.46234 46.0691 7.24486 45.6763 7.08629C45.2828 6.92749 44.872 6.85156 44.4284 6.85156C43.5573 6.85156 42.8209 7.15312 42.2186 7.7548C41.615 8.35767 41.3143 9.10114 41.3143 9.97947C41.3143 10.8576 41.615 11.6022 42.2186 12.2039C42.8209 12.8068 43.5573 13.1071 44.4284 13.1071C45.3408 13.1071 46.0691 12.8147 46.6306 12.2209C47.1241 11.728 47.3759 11.0583 47.3759 10.2219C47.3759 10.0801 47.3589 9.92941 47.3339 9.77084Z" fill="white"/>
<path d="M48.4808 6.98633V12.9744H51.9808V12.2388H49.2513V10.3406H51.712V9.62106H49.2513V7.72286H51.9808V6.98633H48.4808Z" fill="white"/>
<path d="M56.9024 7.72286V6.98633H52.7831V7.72286H54.4575V12.9744H55.2279V7.72286H56.9024Z" fill="white"/>
<path d="M60.6533 6.98633H59.8839V12.9744H60.6533V6.98633Z" fill="white"/>
<path d="M65.7445 7.72286V6.98633H61.6252V7.72286H63.2997V12.9744H64.0701V7.72286H65.7445Z" fill="white"/>
<path d="M73.5397 7.7639C72.945 7.15312 72.2168 6.85156 71.3454 6.85156C70.4752 6.85156 69.746 7.15312 69.1514 7.7548C68.5569 8.34857 68.2642 9.09324 68.2642 9.97947C68.2642 10.8667 68.5569 11.6101 69.1514 12.2039C69.746 12.8068 70.4752 13.1071 71.3454 13.1071C72.2077 13.1071 72.945 12.8068 73.5397 12.2039C74.1341 11.6101 74.4267 10.8667 74.4267 9.97947C74.4267 9.10114 74.1341 8.35767 73.5397 7.7639ZM69.705 8.26474C70.1486 7.81372 70.692 7.58809 71.3454 7.58809C71.9991 7.58809 72.5424 7.81372 72.9781 8.26474C73.4217 8.70881 73.6395 9.28581 73.6395 9.97947C73.6395 10.6741 73.4217 11.2508 72.9781 11.694C72.5424 12.1459 71.9991 12.3716 71.3454 12.3716C70.692 12.3716 70.1486 12.1459 69.705 11.694C69.2693 11.2429 69.0516 10.6741 69.0516 9.97947C69.0516 9.28581 69.2693 8.71695 69.705 8.26474Z" fill="white"/>
<path d="M76.2772 9.24477L76.2443 8.09004H76.2772L79.3256 12.9744H80.1289V6.98633H79.3584V10.4912L79.3925 11.645H79.3584L76.445 6.98633H75.5079V12.9744H76.2772V9.24477Z" fill="white"/>
<path fill-rule="evenodd" clip-rule="evenodd" d="M47.3339 9.77084H44.4284V10.4904H46.6055C46.5467 11.0753 46.312 11.5354 45.9192 11.8695C45.5255 12.2039 45.0229 12.3716 44.4284 12.3716C43.775 12.3716 43.2226 12.1459 42.771 11.694C42.3274 11.2338 42.1006 10.6659 42.1006 9.97947C42.1006 9.29372 42.3274 8.72486 42.771 8.26474C43.2226 7.81372 43.775 7.58809 44.4284 7.58809C44.7632 7.58809 45.0819 7.64605 45.3746 7.7718C45.6674 7.89755 45.9022 8.07312 46.0861 8.29875L46.6386 7.74689C46.3877 7.46234 46.0691 7.24486 45.6763 7.08629C45.2828 6.92749 44.872 6.85156 44.4284 6.85156C43.5573 6.85156 42.8209 7.15312 42.2186 7.7548C41.615 8.35767 41.3143 9.10114 41.3143 9.97947C41.3143 10.8576 41.615 11.6022 42.2186 12.2039C42.8209 12.8068 43.5573 13.1071 44.4284 13.1071C45.3408 13.1071 46.0691 12.8147 46.6306 12.2209C47.1241 11.728 47.3759 11.0583 47.3759 10.2219C47.3759 10.0801 47.3589 9.92941 47.3339 9.77084ZM48.4808 6.98545V12.9735H51.9808V12.2379H49.2513V10.3397H51.712V9.62019H49.2513V7.72198H51.9808V6.98545H48.4808ZM56.9024 7.72198V6.98545H52.7841V7.72198H54.4585V12.9735H55.228V7.72198H56.9024ZM60.6541 6.98545H59.8839V12.9735H60.6541V6.98545ZM65.7445 7.72198V6.98545H61.6252V7.72198H63.2997V12.9735H64.0701V7.72198H65.7445ZM73.5398 7.7639C72.9451 7.15312 72.2169 6.85156 71.3455 6.85156C70.4743 6.85156 69.7461 7.15312 69.1514 7.7548C68.557 8.34857 68.2642 9.09324 68.2642 9.97947C68.2642 10.8667 68.557 11.6101 69.1514 12.2039C69.7461 12.8068 70.4743 13.1071 71.3455 13.1071C72.2077 13.1071 72.9451 12.8068 73.5398 12.2039C74.1342 11.6101 74.4267 10.8667 74.4267 9.97947C74.4267 9.10114 74.1342 8.35767 73.5398 7.7639ZM69.7051 8.26474C70.1487 7.81372 70.6921 7.58809 71.3455 7.58809C71.9991 7.58809 72.5425 7.81372 72.9782 8.26474C73.4218 8.70881 73.6395 9.28581 73.6395 9.97947C73.6395 10.6741 73.4218 11.2508 72.9782 11.694C72.5425 12.1459 71.9991 12.3716 71.3455 12.3716C70.6921 12.3716 70.1487 12.1459 69.7051 11.694C69.2694 11.2429 69.0517 10.6741 69.0517 9.97947C69.0517 9.28581 69.2694 8.71695 69.7051 8.26474ZM76.2781 9.2439L76.2443 8.08917H76.2781L79.3256 12.9735H80.1289V6.98545H79.3584V10.4904L79.3925 11.6441H79.3584L76.445 6.98545H75.5079V12.9735H76.2781V9.2439Z" stroke="white" stroke-width="0.2" stroke-miterlimit="2"/>
<path d="M106.841 29.9409H108.705V17.464H106.841V29.9409ZM123.633 21.9579L121.496 27.367H121.432L119.214 21.9579H117.206L120.533 29.5188L118.636 33.7234H120.58L125.706 21.9579H123.633ZM113.06 28.5239C112.45 28.5239 111.598 28.2182 111.598 27.464C111.598 26.5009 112.659 26.1315 113.574 26.1315C114.393 26.1315 114.78 26.3083 115.278 26.5488C115.133 27.7045 114.137 28.5239 113.06 28.5239ZM113.285 21.6855C111.936 21.6855 110.538 22.2793 109.959 23.5955L111.614 24.2853C111.968 23.5955 112.626 23.371 113.317 23.371C114.281 23.371 115.261 23.9488 115.278 24.9758V25.1045C114.94 24.9119 114.216 24.6225 113.333 24.6225C111.549 24.6225 109.733 25.6015 109.733 27.4319C109.733 29.1016 111.196 30.1765 112.835 30.1765C114.088 30.1765 114.78 29.6146 115.213 28.9569H115.278V29.92H117.078V25.1365C117.078 22.921 115.421 21.6855 113.285 21.6855ZM101.764 23.4769H99.1118V19.2005H101.764C103.157 19.2005 103.949 20.3531 103.949 21.3392C103.949 22.3061 103.157 23.4769 101.764 23.4769ZM101.716 17.464H97.2475V29.9409H99.1118V25.2134H101.716C103.782 25.2134 105.813 23.7193 105.813 21.3392C105.813 18.9588 103.782 17.464 101.716 17.464ZM77.3552 28.5258C76.0674 28.5258 74.9893 27.4479 74.9893 25.9698C74.9893 24.4738 76.0674 23.3811 77.3552 23.3811C78.6271 23.3811 79.6253 24.4738 79.6253 25.9698C79.6253 27.4479 78.6271 28.5258 77.3552 28.5258ZM79.4963 22.6575H79.4313C79.0129 22.1583 78.2084 21.7083 77.1943 21.7083C75.0694 21.7083 73.1221 23.5737 73.1221 25.9698C73.1221 28.349 75.0694 30.1974 77.1943 30.1974C78.2084 30.1974 79.0129 29.7473 79.4313 29.2333H79.4963V29.8441C79.4963 31.4678 78.6271 32.3361 77.2262 32.3361C76.0844 32.3361 75.376 31.5167 75.0861 30.8252L73.4606 31.4997C73.9273 32.6254 75.1662 34.0089 77.2262 34.0089C79.4165 34.0089 81.2666 32.7224 81.2666 29.5866V21.9658H79.4963V22.6575ZM82.5545 29.9409H84.422V17.464H82.5545V29.9409ZM87.1736 25.8242C87.1266 24.1845 88.4463 23.349 89.3954 23.349C90.1359 23.349 90.7634 23.7183 90.9732 24.2482L87.1736 25.8242ZM92.9685 24.4098C92.6146 23.4609 91.5367 21.7083 89.3316 21.7083C87.1417 21.7083 85.3231 23.429 85.3231 25.9528C85.3231 28.3332 87.1266 30.1974 89.5405 30.1974C91.4878 30.1974 92.6146 29.0077 93.0824 28.3171L91.6326 27.3521C91.1499 28.0597 90.4905 28.5258 89.5405 28.5258C88.5902 28.5258 87.9147 28.0915 87.4802 27.2393L93.1622 24.892L92.9685 24.4098ZM47.7006 23.0108V24.8113H52.0148C51.8858 25.8242 51.5482 26.5636 51.0326 27.0786C50.4051 27.7054 49.423 28.3969 47.7006 28.3969C45.0449 28.3969 42.9689 26.2592 42.9689 23.6055C42.9689 20.9528 45.0449 18.8142 47.7006 18.8142C49.1333 18.8142 50.1795 19.377 50.9528 20.1006L52.2237 18.8302C51.1456 17.8012 49.7129 17.0137 47.7006 17.0137C44.0628 17.0137 41.0045 19.9718 41.0045 23.6055C41.0045 27.2393 44.0628 30.1974 47.7006 30.1974C49.6639 30.1974 51.1456 29.5548 52.3045 28.349C53.4955 27.1586 53.8662 25.4867 53.8662 24.1365C53.8662 23.7183 53.8331 23.332 53.7693 23.0108H47.7006ZM58.7698 28.5258C57.4819 28.5258 56.371 27.4649 56.371 25.9528C56.371 24.4259 57.4819 23.3811 58.7698 23.3811C60.0577 23.3811 61.1687 24.4259 61.1687 25.9528C61.1687 27.4649 60.0577 28.5258 58.7698 28.5258ZM58.7698 21.7083C56.4199 21.7083 54.5045 23.4939 54.5045 25.9528C54.5045 28.3969 56.4199 30.1974 58.7698 30.1974C61.1198 30.1974 63.0349 28.3969 63.0349 25.9528C63.0349 23.4939 61.1198 21.7083 58.7698 21.7083ZM68.0745 28.5258C66.7876 28.5258 65.6767 27.4649 65.6767 25.9528C65.6767 24.4259 66.7876 23.3811 68.0745 23.3811C69.3624 23.3811 70.4734 24.4259 70.4734 25.9528C70.4734 27.4649 69.3624 28.5258 68.0745 28.5258ZM68.0745 21.7083C65.7246 21.7083 63.8092 23.4939 63.8092 25.9528C63.8092 28.3969 65.7246 30.1974 68.0745 30.1974C70.4254 30.1974 72.3406 28.3969 72.3406 25.9528C72.3406 23.4939 70.4254 21.7083 68.0745 21.7083Z" fill="white"/>
<path d="M20.6987 19.3867L10.061 30.6643C10.0622 30.6662 10.0622 30.6684 10.0632 30.6703C10.3888 31.8957 11.5089 32.797 12.8375 32.797C13.3691 32.797 13.8677 32.6533 14.2954 32.4018L14.3292 32.3819L26.3028 25.4806L20.6987 19.3867Z" fill="#EB4335"/>
<path d="M31.46 17.4658L31.4499 17.4589L26.2806 14.4648L20.4569 19.6414L26.3005 25.4778L31.443 22.5147C32.3443 22.0287 32.9558 21.0795 32.9558 19.9846C32.9558 18.8979 32.3523 17.9527 31.46 17.4658Z" fill="#FABC13"/>
<path d="M10.061 9.25977C9.99718 9.49545 9.96313 9.74192 9.96313 9.99845V29.9254C9.96313 30.1819 9.99623 30.4296 10.061 30.6641L21.0643 19.6751L10.061 9.25977Z" fill="#547DBF"/>
<path d="M20.7766 19.9612L26.2826 14.4632L14.3223 7.53725C13.8878 7.27665 13.3811 7.12695 12.8375 7.12695C11.5089 7.12695 10.3879 8.03019 10.061 9.25677V9.25965L20.7766 19.9612Z" fill="#30A851"/>
</g>
</g>
<defs>
<clipPath id="clip0_50_680">
<rect width="135" height="40" fill="white"/>
</clipPath>
</defs>
</svg>
